<svg width="243" height="1070" viewBox="0 0 243 1070" fill="none" xmlns="http://www.w3.org/2000/svg">
<rect width="240" height="1070" fill="#273142"/>
<rect y="323" width="240" height="50" fill="#273142"/>
<path d="M79.148 353V343.13H83.236C83.9547 343.13 84.5613 343.251 85.056 343.494C85.5507 343.727 85.924 344.068 86.176 344.516C86.4373 344.964 86.568 345.505 86.568 346.14C86.568 346.775 86.4373 347.321 86.176 347.778C85.924 348.226 85.5507 348.571 85.056 348.814C84.5613 349.047 83.9547 349.164 83.236 349.164H80.604V353H79.148ZM80.604 348.002H83.026C83.726 348.002 84.2533 347.848 84.608 347.54C84.972 347.223 85.154 346.756 85.154 346.14C85.154 345.533 84.972 345.076 84.608 344.768C84.2533 344.451 83.726 344.292 83.026 344.292H80.604V348.002ZM91.1543 353.126C90.4076 353.126 89.7636 352.986 89.2223 352.706C88.6903 352.417 88.275 352.011 87.9763 351.488C87.687 350.956 87.5423 350.326 87.5423 349.598C87.5423 348.889 87.687 348.268 87.9763 347.736C88.2656 347.204 88.6623 346.789 89.1663 346.49C89.6703 346.191 90.2443 346.042 90.8883 346.042C91.523 346.042 92.0643 346.182 92.5123 346.462C92.9696 346.733 93.3196 347.12 93.5623 347.624C93.805 348.128 93.9263 348.73 93.9263 349.43V349.906H88.6623V349.038H92.9743L92.7363 349.234C92.7363 348.534 92.5823 347.993 92.2743 347.61C91.9663 347.227 91.523 347.036 90.9443 347.036C90.5056 347.036 90.1323 347.139 89.8243 347.344C89.5256 347.549 89.297 347.834 89.1383 348.198C88.9796 348.562 88.9003 348.987 88.9003 349.472V349.556C88.9003 350.097 88.9843 350.555 89.1523 350.928C89.3296 351.292 89.5863 351.567 89.9223 351.754C90.2583 351.941 90.6736 352.034 91.1683 352.034C91.5603 352.034 91.943 351.973 92.3163 351.852C92.699 351.721 93.0583 351.521 93.3943 351.25L93.8143 352.23C93.5063 352.51 93.1096 352.729 92.6243 352.888C92.139 353.047 91.649 353.126 91.1543 353.126ZM98.3718 353.126C97.7745 353.126 97.2472 352.986 96.7898 352.706C96.3418 352.417 95.9918 352.006 95.7398 351.474C95.4878 350.933 95.3618 350.303 95.3618 349.584C95.3618 348.847 95.4878 348.217 95.7398 347.694C95.9918 347.171 96.3418 346.765 96.7898 346.476C97.2472 346.187 97.7745 346.042 98.3718 346.042C98.9692 346.042 99.4825 346.191 99.9118 346.49C100.35 346.779 100.644 347.171 100.794 347.666H100.64V343.13H102.054V353H100.668V351.46H100.808C100.658 351.964 100.364 352.37 99.9258 352.678C99.4965 352.977 98.9785 353.126 98.3718 353.126ZM98.7358 352.034C99.3145 352.034 99.7812 351.824 100.136 351.404C100.49 350.984 100.668 350.377 100.668 349.584C100.668 348.781 100.49 348.175 100.136 347.764C99.7812 347.353 99.3145 347.148 98.7358 347.148C98.1478 347.148 97.6765 347.353 97.3218 347.764C96.9672 348.175 96.7898 348.781 96.7898 349.584C96.7898 350.377 96.9672 350.984 97.3218 351.404C97.6765 351.824 98.1478 352.034 98.7358 352.034ZM104.213 344.586V343.116H105.865V344.586H104.213ZM104.339 353V346.168H105.753V353H104.339ZM110.648 353.126C110.05 353.126 109.523 352.986 109.066 352.706C108.618 352.417 108.268 352.006 108.016 351.474C107.764 350.933 107.638 350.303 107.638 349.584C107.638 348.847 107.764 348.217 108.016 347.694C108.268 347.171 108.618 346.765 109.066 346.476C109.523 346.187 110.05 346.042 110.648 346.042C111.245 346.042 111.758 346.191 112.188 346.49C112.626 346.779 112.92 347.171 113.07 347.666H112.916V343.13H114.33V353H112.944V351.46H113.084C112.934 351.964 112.64 352.37 112.202 352.678C111.772 352.977 111.254 353.126 110.648 353.126ZM111.012 352.034C111.59 352.034 112.057 351.824 112.412 351.404C112.766 350.984 112.944 350.377 112.944 349.584C112.944 348.781 112.766 348.175 112.412 347.764C112.057 347.353 111.59 347.148 111.012 347.148C110.424 347.148 109.952 347.353 109.598 347.764C109.243 348.175 109.066 348.781 109.066 349.584C109.066 350.377 109.243 350.984 109.598 351.404C109.952 351.824 110.424 352.034 111.012 352.034ZM119.583 353.126C118.892 353.126 118.295 352.981 117.791 352.692C117.296 352.403 116.909 351.992 116.629 351.46C116.349 350.928 116.209 350.303 116.209 349.584C116.209 348.856 116.349 348.231 116.629 347.708C116.909 347.176 117.296 346.765 117.791 346.476C118.295 346.187 118.892 346.042 119.583 346.042C120.264 346.042 120.852 346.187 121.347 346.476C121.851 346.765 122.243 347.176 122.523 347.708C122.803 348.24 122.943 348.865 122.943 349.584C122.943 350.303 122.803 350.928 122.523 351.46C122.243 351.992 121.851 352.403 121.347 352.692C120.852 352.981 120.264 353.126 119.583 353.126ZM119.569 352.034C120.157 352.034 120.628 351.824 120.983 351.404C121.338 350.984 121.515 350.377 121.515 349.584C121.515 348.781 121.338 348.175 120.983 347.764C120.628 347.353 120.157 347.148 119.569 347.148C118.99 347.148 118.524 347.353 118.169 347.764C117.814 348.175 117.637 348.781 117.637 349.584C117.637 350.377 117.814 350.984 118.169 351.404C118.524 351.824 118.99 352.034 119.569 352.034ZM127.225 353.126C126.861 353.126 126.506 353.093 126.161 353.028C125.816 352.963 125.498 352.869 125.209 352.748C124.92 352.627 124.663 352.477 124.439 352.3L124.845 351.348C125.078 351.507 125.326 351.647 125.587 351.768C125.848 351.88 126.119 351.964 126.399 352.02C126.688 352.076 126.968 352.104 127.239 352.104C127.734 352.104 128.107 352.015 128.359 351.838C128.611 351.661 128.737 351.423 128.737 351.124C128.737 350.881 128.653 350.695 128.485 350.564C128.317 350.424 128.065 350.317 127.729 350.242L126.399 349.976C125.82 349.855 125.382 349.64 125.083 349.332C124.784 349.024 124.635 348.632 124.635 348.156C124.635 347.727 124.752 347.353 124.985 347.036C125.218 346.719 125.545 346.476 125.965 346.308C126.385 346.131 126.87 346.042 127.421 346.042C127.738 346.042 128.046 346.075 128.345 346.14C128.644 346.205 128.924 346.299 129.185 346.42C129.456 346.541 129.684 346.695 129.871 346.882L129.465 347.834C129.288 347.675 129.082 347.54 128.849 347.428C128.625 347.316 128.392 347.232 128.149 347.176C127.906 347.111 127.664 347.078 127.421 347.078C126.926 347.078 126.553 347.171 126.301 347.358C126.058 347.535 125.937 347.778 125.937 348.086C125.937 348.319 126.012 348.511 126.161 348.66C126.31 348.809 126.544 348.917 126.861 348.982L128.191 349.248C128.798 349.369 129.255 349.575 129.563 349.864C129.88 350.153 130.039 350.545 130.039 351.04C130.039 351.469 129.922 351.843 129.689 352.16C129.456 352.477 129.124 352.72 128.695 352.888C128.275 353.047 127.785 353.126 127.225 353.126Z" fill="white"/>
<path opacity="0.21" d="M3.5 253.5H242.5" stroke="#E0E0E0" stroke-width="0.6" stroke-linecap="square"/>
<path opacity="0.21" d="M0.5 322.5H239.5" stroke="#E0E0E0" stroke-width="0.6" stroke-linecap="square"/>
<rect y="194" width="240" height="50" fill="#273142"/>
<path d="M83.572 224.126C82.5733 224.126 81.7193 223.921 81.01 223.51C80.3007 223.099 79.7547 222.516 79.372 221.76C78.9987 220.995 78.812 220.094 78.812 219.058C78.812 218.022 78.9987 217.126 79.372 216.37C79.7547 215.614 80.3007 215.031 81.01 214.62C81.7193 214.209 82.5733 214.004 83.572 214.004C84.244 214.004 84.8693 214.111 85.448 214.326C86.036 214.531 86.526 214.83 86.918 215.222L86.414 216.384C85.9847 216.001 85.5413 215.726 85.084 215.558C84.636 215.381 84.146 215.292 83.614 215.292C82.55 215.292 81.738 215.619 81.178 216.272C80.618 216.925 80.338 217.854 80.338 219.058C80.338 220.262 80.618 221.195 81.178 221.858C81.738 222.511 82.55 222.838 83.614 222.838C84.146 222.838 84.636 222.754 85.084 222.586C85.5413 222.409 85.9847 222.129 86.414 221.746L86.918 222.908C86.526 223.3 86.036 223.603 85.448 223.818C84.8693 224.023 84.244 224.126 83.572 224.126ZM90.9809 224.126C90.2343 224.126 89.6743 223.916 89.3009 223.496C88.9369 223.067 88.7549 222.451 88.7549 221.648V214.13H90.1689V221.564C90.1689 221.863 90.2109 222.119 90.2949 222.334C90.3789 222.539 90.5049 222.693 90.6729 222.796C90.8409 222.899 91.0509 222.95 91.3029 222.95C91.4149 222.95 91.5223 222.945 91.6249 222.936C91.7276 222.927 91.8256 222.908 91.9189 222.88L91.8909 224.014C91.7323 224.051 91.5783 224.079 91.4289 224.098C91.2796 224.117 91.1303 224.126 90.9809 224.126ZM93.2082 215.586V214.116H94.8602V215.586H93.2082ZM93.3342 224V217.168H94.7482V224H93.3342ZM100.245 224.126C99.4979 224.126 98.8539 223.986 98.3125 223.706C97.7805 223.417 97.3652 223.011 97.0665 222.488C96.7772 221.956 96.6325 221.326 96.6325 220.598C96.6325 219.889 96.7772 219.268 97.0665 218.736C97.3559 218.204 97.7525 217.789 98.2565 217.49C98.7605 217.191 99.3345 217.042 99.9785 217.042C100.613 217.042 101.155 217.182 101.603 217.462C102.06 217.733 102.41 218.12 102.653 218.624C102.895 219.128 103.017 219.73 103.017 220.43V220.906H97.7525V220.038H102.065L101.827 220.234C101.827 219.534 101.673 218.993 101.365 218.61C101.057 218.227 100.613 218.036 100.035 218.036C99.5959 218.036 99.2225 218.139 98.9145 218.344C98.6159 218.549 98.3872 218.834 98.2285 219.198C98.0699 219.562 97.9905 219.987 97.9905 220.472V220.556C97.9905 221.097 98.0745 221.555 98.2425 221.928C98.4199 222.292 98.6765 222.567 99.0125 222.754C99.3485 222.941 99.7639 223.034 100.259 223.034C100.651 223.034 101.033 222.973 101.407 222.852C101.789 222.721 102.149 222.521 102.485 222.25L102.905 223.23C102.597 223.51 102.2 223.729 101.715 223.888C101.229 224.047 100.739 224.126 100.245 224.126ZM104.858 224V217.168H106.23V218.624H106.076C106.281 218.101 106.603 217.709 107.042 217.448C107.481 217.177 107.985 217.042 108.554 217.042C109.095 217.042 109.543 217.145 109.898 217.35C110.262 217.546 110.533 217.849 110.71 218.26C110.887 218.661 110.976 219.17 110.976 219.786V224H109.562V219.87C109.562 219.478 109.511 219.161 109.408 218.918C109.305 218.666 109.151 218.479 108.946 218.358C108.741 218.237 108.475 218.176 108.148 218.176C107.775 218.176 107.443 218.255 107.154 218.414C106.874 218.573 106.655 218.801 106.496 219.1C106.347 219.399 106.272 219.744 106.272 220.136V224H104.858ZM116.136 224.126C115.287 224.126 114.648 223.907 114.218 223.468C113.798 223.029 113.588 222.395 113.588 221.564V218.26H112.258V217.168H113.588V215.11H115.002V217.168H117.116V218.26H115.002V221.452C115.002 221.947 115.105 222.32 115.31 222.572C115.525 222.824 115.87 222.95 116.346 222.95C116.486 222.95 116.626 222.931 116.766 222.894C116.916 222.857 117.06 222.819 117.2 222.782L117.424 223.846C117.284 223.93 117.088 223.995 116.836 224.042C116.594 224.098 116.36 224.126 116.136 224.126ZM121.775 224.126C121.029 224.126 120.385 223.986 119.843 223.706C119.311 223.417 118.896 223.011 118.597 222.488C118.308 221.956 118.163 221.326 118.163 220.598C118.163 219.889 118.308 219.268 118.597 218.736C118.887 218.204 119.283 217.789 119.787 217.49C120.291 217.191 120.865 217.042 121.509 217.042C122.144 217.042 122.685 217.182 123.133 217.462C123.591 217.733 123.941 218.12 124.183 218.624C124.426 219.128 124.547 219.73 124.547 220.43V220.906H119.283V220.038H123.595L123.357 220.234C123.357 219.534 123.203 218.993 122.895 218.61C122.587 218.227 122.144 218.036 121.565 218.036C121.127 218.036 120.753 218.139 120.445 218.344C120.147 218.549 119.918 218.834 119.759 219.198C119.601 219.562 119.521 219.987 119.521 220.472V220.556C119.521 221.097 119.605 221.555 119.773 221.928C119.951 222.292 120.207 222.567 120.543 222.754C120.879 222.941 121.295 223.034 121.789 223.034C122.181 223.034 122.564 222.973 122.937 222.852C123.32 222.721 123.679 222.521 124.015 222.25L124.435 223.23C124.127 223.51 123.731 223.729 123.245 223.888C122.76 224.047 122.27 224.126 121.775 224.126ZM128.783 224.126C128.419 224.126 128.064 224.093 127.719 224.028C127.374 223.963 127.056 223.869 126.767 223.748C126.478 223.627 126.221 223.477 125.997 223.3L126.403 222.348C126.636 222.507 126.884 222.647 127.145 222.768C127.406 222.88 127.677 222.964 127.957 223.02C128.246 223.076 128.526 223.104 128.797 223.104C129.292 223.104 129.665 223.015 129.917 222.838C130.169 222.661 130.295 222.423 130.295 222.124C130.295 221.881 130.211 221.695 130.043 221.564C129.875 221.424 129.623 221.317 129.287 221.242L127.957 220.976C127.378 220.855 126.94 220.64 126.641 220.332C126.342 220.024 126.193 219.632 126.193 219.156C126.193 218.727 126.31 218.353 126.543 218.036C126.776 217.719 127.103 217.476 127.523 217.308C127.943 217.131 128.428 217.042 128.979 217.042C129.296 217.042 129.604 217.075 129.903 217.14C130.202 217.205 130.482 217.299 130.743 217.42C131.014 217.541 131.242 217.695 131.429 217.882L131.023 218.834C130.846 218.675 130.64 218.54 130.407 218.428C130.183 218.316 129.95 218.232 129.707 218.176C129.464 218.111 129.222 218.078 128.979 218.078C128.484 218.078 128.111 218.171 127.859 218.358C127.616 218.535 127.495 218.778 127.495 219.086C127.495 219.319 127.57 219.511 127.719 219.66C127.868 219.809 128.102 219.917 128.419 219.982L129.749 220.248C130.356 220.369 130.813 220.575 131.121 220.864C131.438 221.153 131.597 221.545 131.597 222.04C131.597 222.469 131.48 222.843 131.247 223.16C131.014 223.477 130.682 223.72 130.253 223.888C129.833 224.047 129.343 224.126 128.783 224.126Z" fill="white"/>
<rect y="263" width="240" height="50" fill="#273142"/>
<mask id="mask0_217_8399" style="mask-type:luminance" maskUnits="userSpaceOnUse" x="0" y="263" width="240" height="50">
<rect y="263" width="240" height="50" fill="white"/>
</mask>
<g mask="url(#mask0_217_8399)">
<rect x="24" y="263" width="192" height="50" rx="6" fill="#4880FF"/>
<rect x="-5" y="263" width="9" height="50" rx="4" fill="#4880FF"/>
</g>
<path d="M79.148 293V283.13H83.236C83.9547 283.13 84.5613 283.251 85.056 283.494C85.5507 283.727 85.924 284.068 86.176 284.516C86.4373 284.964 86.568 285.505 86.568 286.14C86.568 286.775 86.4373 287.321 86.176 287.778C85.924 288.226 85.5507 288.571 85.056 288.814C84.5613 289.047 83.9547 289.164 83.236 289.164H80.604V293H79.148ZM80.604 288.002H83.026C83.726 288.002 84.2533 287.848 84.608 287.54C84.972 287.223 85.154 286.756 85.154 286.14C85.154 285.533 84.972 285.076 84.608 284.768C84.2533 284.451 83.726 284.292 83.026 284.292H80.604V288.002ZM88.1397 293V286.168H89.5117V287.806H89.3717C89.521 287.246 89.787 286.821 90.1697 286.532C90.5617 286.243 91.0797 286.075 91.7237 286.028L92.1857 286L92.2837 287.204L91.4297 287.288C90.823 287.344 90.361 287.535 90.0437 287.862C89.7264 288.189 89.5677 288.637 89.5677 289.206V293H88.1397ZM96.5347 293.126C95.844 293.126 95.2467 292.981 94.7427 292.692C94.248 292.403 93.8607 291.992 93.5807 291.46C93.3007 290.928 93.1607 290.303 93.1607 289.584C93.1607 288.856 93.3007 288.231 93.5807 287.708C93.8607 287.176 94.248 286.765 94.7427 286.476C95.2467 286.187 95.844 286.042 96.5347 286.042C97.216 286.042 97.804 286.187 98.2987 286.476C98.8027 286.765 99.1947 287.176 99.4747 287.708C99.7547 288.24 99.8947 288.865 99.8947 289.584C99.8947 290.303 99.7547 290.928 99.4747 291.46C99.1947 291.992 98.8027 292.403 98.2987 292.692C97.804 292.981 97.216 293.126 96.5347 293.126ZM96.5207 292.034C97.1087 292.034 97.58 291.824 97.9347 291.404C98.2893 290.984 98.4667 290.377 98.4667 289.584C98.4667 288.781 98.2893 288.175 97.9347 287.764C97.58 287.353 97.1087 287.148 96.5207 287.148C95.942 287.148 95.4753 287.353 95.1207 287.764C94.766 288.175 94.5887 288.781 94.5887 289.584C94.5887 290.377 94.766 290.984 95.1207 291.404C95.4753 291.824 95.942 292.034 96.5207 292.034ZM104.387 293.126C103.789 293.126 103.262 292.986 102.805 292.706C102.357 292.417 102.007 292.006 101.755 291.474C101.503 290.933 101.377 290.303 101.377 289.584C101.377 288.847 101.503 288.217 101.755 287.694C102.007 287.171 102.357 286.765 102.805 286.476C103.262 286.187 103.789 286.042 104.387 286.042C104.984 286.042 105.497 286.191 105.927 286.49C106.365 286.779 106.659 287.171 106.809 287.666H106.655V283.13H108.069V293H106.683V291.46H106.823C106.673 291.964 106.379 292.37 105.941 292.678C105.511 292.977 104.993 293.126 104.387 293.126ZM104.751 292.034C105.329 292.034 105.796 291.824 106.151 291.404C106.505 290.984 106.683 290.377 106.683 289.584C106.683 288.781 106.505 288.175 106.151 287.764C105.796 287.353 105.329 287.148 104.751 287.148C104.163 287.148 103.691 287.353 103.337 287.764C102.982 288.175 102.805 288.781 102.805 289.584C102.805 290.377 102.982 290.984 103.337 291.404C103.691 291.824 104.163 292.034 104.751 292.034ZM112.79 293.126C112.239 293.126 111.777 293.023 111.404 292.818C111.04 292.613 110.765 292.309 110.578 291.908C110.401 291.497 110.312 290.984 110.312 290.368V286.168H111.726V290.382C111.726 290.746 111.773 291.049 111.866 291.292C111.969 291.535 112.123 291.712 112.328 291.824C112.543 291.936 112.809 291.992 113.126 291.992C113.481 291.992 113.793 291.913 114.064 291.754C114.335 291.595 114.545 291.367 114.694 291.068C114.843 290.769 114.918 290.424 114.918 290.032V286.168H116.332V293H114.96V291.502H115.142C114.955 292.025 114.657 292.426 114.246 292.706C113.835 292.986 113.35 293.126 112.79 293.126ZM121.635 293.126C120.935 293.126 120.328 292.981 119.815 292.692C119.311 292.393 118.919 291.978 118.639 291.446C118.359 290.905 118.219 290.27 118.219 289.542C118.219 288.823 118.359 288.203 118.639 287.68C118.919 287.157 119.311 286.756 119.815 286.476C120.328 286.187 120.935 286.042 121.635 286.042C122.064 286.042 122.489 286.117 122.909 286.266C123.329 286.406 123.674 286.611 123.945 286.882L123.497 287.876C123.245 287.633 122.96 287.456 122.643 287.344C122.326 287.223 122.027 287.162 121.747 287.162C121.084 287.162 120.571 287.372 120.207 287.792C119.852 288.203 119.675 288.791 119.675 289.556C119.675 290.321 119.852 290.923 120.207 291.362C120.571 291.791 121.084 292.006 121.747 292.006C122.027 292.006 122.326 291.95 122.643 291.838C122.96 291.717 123.245 291.535 123.497 291.292L123.945 292.3C123.674 292.552 123.324 292.753 122.895 292.902C122.475 293.051 122.055 293.126 121.635 293.126ZM128.386 293.126C127.536 293.126 126.897 292.907 126.468 292.468C126.048 292.029 125.838 291.395 125.838 290.564V287.26H124.508V286.168H125.838V284.11H127.252V286.168H129.366V287.26H127.252V290.452C127.252 290.947 127.354 291.32 127.56 291.572C127.774 291.824 128.12 291.95 128.596 291.95C128.736 291.95 128.876 291.931 129.016 291.894C129.165 291.857 129.31 291.819 129.45 291.782L129.674 292.846C129.534 292.93 129.338 292.995 129.086 293.042C128.843 293.098 128.61 293.126 128.386 293.126ZM133.787 293.126C133.096 293.126 132.499 292.981 131.995 292.692C131.5 292.403 131.113 291.992 130.833 291.46C130.553 290.928 130.413 290.303 130.413 289.584C130.413 288.856 130.553 288.231 130.833 287.708C131.113 287.176 131.5 286.765 131.995 286.476C132.499 286.187 133.096 286.042 133.787 286.042C134.468 286.042 135.056 286.187 135.551 286.476C136.055 286.765 136.447 287.176 136.727 287.708C137.007 288.24 137.147 288.865 137.147 289.584C137.147 290.303 137.007 290.928 136.727 291.46C136.447 291.992 136.055 292.403 135.551 292.692C135.056 292.981 134.468 293.126 133.787 293.126ZM133.773 292.034C134.361 292.034 134.832 291.824 135.187 291.404C135.541 290.984 135.719 290.377 135.719 289.584C135.719 288.781 135.541 288.175 135.187 287.764C134.832 287.353 134.361 287.148 133.773 287.148C133.194 287.148 132.727 287.353 132.373 287.764C132.018 288.175 131.841 288.781 131.841 289.584C131.841 290.377 132.018 290.984 132.373 291.404C132.727 291.824 133.194 292.034 133.773 292.034ZM141.429 293.126C141.065 293.126 140.71 293.093 140.365 293.028C140.019 292.963 139.702 292.869 139.413 292.748C139.123 292.627 138.867 292.477 138.643 292.3L139.049 291.348C139.282 291.507 139.529 291.647 139.791 291.768C140.052 291.88 140.323 291.964 140.603 292.02C140.892 292.076 141.172 292.104 141.443 292.104C141.937 292.104 142.311 292.015 142.563 291.838C142.815 291.661 142.941 291.423 142.941 291.124C142.941 290.881 142.857 290.695 142.689 290.564C142.521 290.424 142.269 290.317 141.933 290.242L140.603 289.976C140.024 289.855 139.585 289.64 139.287 289.332C138.988 289.024 138.839 288.632 138.839 288.156C138.839 287.727 138.955 287.353 139.189 287.036C139.422 286.719 139.749 286.476 140.169 286.308C140.589 286.131 141.074 286.042 141.625 286.042C141.942 286.042 142.25 286.075 142.549 286.14C142.847 286.205 143.127 286.299 143.389 286.42C143.659 286.541 143.888 286.695 144.075 286.882L143.669 287.834C143.491 287.675 143.286 287.54 143.053 287.428C142.829 287.316 142.595 287.232 142.353 287.176C142.11 287.111 141.867 287.078 141.625 287.078C141.13 287.078 140.757 287.171 140.505 287.358C140.262 287.535 140.141 287.778 140.141 288.086C140.141 288.319 140.215 288.511 140.365 288.66C140.514 288.809 140.747 288.917 141.065 288.982L142.395 289.248C143.001 289.369 143.459 289.575 143.767 289.864C144.084 290.153 144.243 290.545 144.243 291.04C144.243 291.469 144.126 291.843 143.893 292.16C143.659 292.477 143.328 292.72 142.899 292.888C142.479 293.047 141.989 293.126 141.429 293.126Z" fill="white"/>
<g opacity="0.01" filter="url(#filter0_i_217_8399)">
<rect x="18" y="27" width="158" height="37" fill="#273142"/>
</g>
<path d="M17.75 57L25.85 39.375H28.975L37.075 57H33.175L31.075 52.1L32.625 53.175H22.2L23.75 52.1L21.675 57H17.75ZM27.375 43.5L24.175 51.125L23.5 50.15H31.325L30.65 51.125L27.425 43.5H27.375ZM38.2732 61.5V44.725H41.9732V47.15H41.7232C41.9732 46.35 42.4732 45.7083 43.2232 45.225C43.9899 44.725 44.8649 44.475 45.8482 44.475C46.9149 44.475 47.8482 44.7333 48.6482 45.25C49.4649 45.7667 50.0982 46.5 50.5482 47.45C50.9982 48.4 51.2232 49.5333 51.2232 50.85C51.2232 52.1667 50.9982 53.3083 50.5482 54.275C50.0982 55.2417 49.4732 55.9833 48.6732 56.5C47.8732 57.0167 46.9316 57.275 45.8482 57.275C44.8816 57.275 44.0232 57.0417 43.2732 56.575C42.5232 56.0917 42.0149 55.4667 41.7482 54.7H42.0482V61.5H38.2732ZM44.7232 54.45C45.5232 54.45 46.1732 54.1583 46.6732 53.575C47.1732 52.975 47.4232 52.0667 47.4232 50.85C47.4232 49.6333 47.1732 48.7417 46.6732 48.175C46.1732 47.5917 45.5232 47.3 44.7232 47.3C43.9066 47.3 43.2482 47.5917 42.7482 48.175C42.2482 48.7417 41.9982 49.6333 41.9982 50.85C41.9982 52.0667 42.2482 52.975 42.7482 53.575C43.2482 54.1583 43.9066 54.45 44.7232 54.45ZM53.382 42.35V38.825H57.457V42.35H53.382ZM53.532 57V44.725H57.307V57H53.532ZM71.9545 57.275C70.8878 57.275 69.9462 57.0167 69.1295 56.5C68.3295 55.9833 67.7045 55.2417 67.2545 54.275C66.8045 53.3083 66.5795 52.1667 66.5795 50.85C66.5795 49.5333 66.8045 48.4 67.2545 47.45C67.7045 46.5 68.3295 45.7667 69.1295 45.25C69.9462 44.7333 70.8878 44.475 71.9545 44.475C72.9212 44.475 73.7712 44.7083 74.5045 45.175C75.2545 45.6417 75.7628 46.25 76.0295 47H75.7545V39.375H79.5295V57H75.8295V54.575H76.0545C75.8212 55.3917 75.3212 56.05 74.5545 56.55C73.8045 57.0333 72.9378 57.275 71.9545 57.275ZM73.0795 54.45C73.8962 54.45 74.5545 54.1583 75.0545 53.575C75.5545 52.975 75.8045 52.0667 75.8045 50.85C75.8045 49.6333 75.5545 48.7417 75.0545 48.175C74.5545 47.5917 73.8962 47.3 73.0795 47.3C72.2795 47.3 71.6295 47.5917 71.1295 48.175C70.6295 48.7417 70.3795 49.6333 70.3795 50.85C70.3795 52.0667 70.6295 52.975 71.1295 53.575C71.6295 54.1583 72.2795 54.45 73.0795 54.45ZM88.8133 57.275C87.3633 57.275 86.1133 57.0167 85.0633 56.5C84.0299 55.9667 83.2299 55.225 82.6633 54.275C82.1133 53.3083 81.8383 52.175 81.8383 50.875C81.8383 49.6083 82.1049 48.5 82.6383 47.55C83.1716 46.5833 83.9133 45.8333 84.8633 45.3C85.8299 44.75 86.9216 44.475 88.1383 44.475C89.3383 44.475 90.3716 44.7333 91.2383 45.25C92.1049 45.75 92.7716 46.4667 93.2383 47.4C93.7216 48.3333 93.9633 49.4417 93.9633 50.725V51.675H84.9383V49.725H91.2383L90.8383 50.075C90.8383 49.0583 90.6133 48.2917 90.1633 47.775C89.7299 47.2417 89.1049 46.975 88.2883 46.975C87.6716 46.975 87.1466 47.1167 86.7133 47.4C86.2799 47.6833 85.9466 48.0917 85.7133 48.625C85.4799 49.1583 85.3633 49.8 85.3633 50.55V50.75C85.3633 51.6 85.4883 52.3 85.7383 52.85C86.0049 53.3833 86.3966 53.7833 86.9133 54.05C87.4466 54.3167 88.1049 54.45 88.8883 54.45C89.5549 54.45 90.2299 54.35 90.9133 54.15C91.5966 53.95 92.2133 53.6417 92.7633 53.225L93.7633 55.75C93.1466 56.2167 92.3883 56.5917 91.4883 56.875C90.6049 57.1417 89.7133 57.275 88.8133 57.275ZM104.067 57V47.55H101.742V44.725H105.167L104.067 45.725V44.95C104.067 43.1333 104.55 41.775 105.517 40.875C106.484 39.9583 107.992 39.4417 110.042 39.325L111.417 39.225L111.642 41.975L110.467 42.05C109.817 42.0833 109.3 42.1917 108.917 42.375C108.534 42.5417 108.259 42.7833 108.092 43.1C107.925 43.4 107.842 43.8 107.842 44.3V45.15L107.367 44.725H111.042V47.55H107.842V57H104.067ZM116.691 57.275C115.791 57.275 114.982 57.1 114.266 56.75C113.549 56.4 112.991 55.925 112.591 55.325C112.191 54.725 111.991 54.05 111.991 53.3C111.991 52.4 112.224 51.6917 112.691 51.175C113.157 50.6417 113.916 50.2667 114.966 50.05C116.016 49.8167 117.407 49.7 119.141 49.7H120.466V51.65H119.166C118.516 51.65 117.966 51.675 117.516 51.725C117.082 51.775 116.724 51.8667 116.441 52C116.157 52.1167 115.949 52.2667 115.816 52.45C115.699 52.6333 115.641 52.8667 115.641 53.15C115.641 53.6167 115.799 54 116.116 54.3C116.449 54.6 116.924 54.75 117.541 54.75C118.024 54.75 118.449 54.6417 118.816 54.425C119.199 54.1917 119.499 53.8833 119.716 53.5C119.932 53.1 120.041 52.65 120.041 52.15V49.275C120.041 48.5417 119.874 48.025 119.541 47.725C119.207 47.4083 118.641 47.25 117.841 47.25C117.174 47.25 116.466 47.3583 115.716 47.575C114.982 47.775 114.249 48.0833 113.516 48.5L112.491 45.975C112.924 45.675 113.449 45.4167 114.066 45.2C114.699 44.9667 115.357 44.7917 116.041 44.675C116.724 44.5417 117.374 44.475 117.991 44.475C119.274 44.475 120.324 44.6667 121.141 45.05C121.974 45.4167 122.599 45.9917 123.016 46.775C123.432 47.5417 123.641 48.5333 123.641 49.75V57H120.116V54.525H120.291C120.191 55.0917 119.974 55.5833 119.641 56C119.324 56.4 118.916 56.7167 118.416 56.95C117.916 57.1667 117.341 57.275 116.691 57.275ZM132.432 57.275C131.099 57.275 129.932 57.0167 128.932 56.5C127.949 55.9667 127.19 55.2167 126.657 54.25C126.124 53.2833 125.857 52.1417 125.857 50.825C125.857 49.5083 126.124 48.375 126.657 47.425C127.19 46.475 127.949 45.75 128.932 45.25C129.932 44.7333 131.099 44.475 132.432 44.475C133.232 44.475 134.024 44.5917 134.807 44.825C135.607 45.0583 136.257 45.3917 136.757 45.825L135.707 48.425C135.307 48.0917 134.84 47.8333 134.307 47.65C133.774 47.45 133.274 47.35 132.807 47.35C131.824 47.35 131.057 47.6583 130.507 48.275C129.974 48.875 129.707 49.7333 129.707 50.85C129.707 51.95 129.974 52.8167 130.507 53.45C131.057 54.0667 131.824 54.375 132.807 54.375C133.274 54.375 133.774 54.2833 134.307 54.1C134.84 53.9167 135.307 53.65 135.707 53.3L136.757 55.9C136.257 56.3167 135.607 56.65 134.807 56.9C134.007 57.15 133.215 57.275 132.432 57.275ZM144.494 57.275C142.744 57.275 141.444 56.85 140.594 56C139.744 55.15 139.319 53.9 139.319 52.25V47.55H136.994V44.725H139.319V41.125H143.094V44.725H146.719V47.55H143.094V52.1C143.094 52.8 143.252 53.325 143.569 53.675C143.902 54.025 144.427 54.2 145.144 54.2C145.36 54.2 145.585 54.175 145.819 54.125C146.069 54.075 146.335 54.0083 146.619 53.925L147.169 56.675C146.819 56.8583 146.402 57 145.919 57.1C145.435 57.2167 144.96 57.275 144.494 57.275ZM153.101 57.275C152.068 57.275 151.209 57.0833 150.526 56.7C149.843 56.3167 149.334 55.7417 149.001 54.975C148.684 54.1917 148.526 53.225 148.526 52.075V44.725H152.301V52.175C152.301 52.6583 152.368 53.0667 152.501 53.4C152.634 53.7167 152.834 53.9583 153.101 54.125C153.384 54.275 153.743 54.35 154.176 54.35C154.659 54.35 155.084 54.2417 155.451 54.025C155.818 53.7917 156.101 53.4667 156.301 53.05C156.518 52.6333 156.626 52.1417 156.626 51.575V44.725H160.401V57H156.726V54.6H157.101C156.734 55.45 156.209 56.1083 155.526 56.575C154.843 57.0417 154.034 57.275 153.101 57.275ZM163.322 57V44.725H167.022V47.725H166.772C166.972 46.725 167.405 45.9583 168.072 45.425C168.755 44.875 169.655 44.5583 170.772 44.475L171.872 44.4L172.097 47.575L169.972 47.8C169.022 47.8833 168.314 48.1583 167.847 48.625C167.397 49.0917 167.172 49.7667 167.172 50.65V57H163.322ZM177.653 57.275C176.753 57.275 175.944 57.1 175.228 56.75C174.511 56.4 173.953 55.925 173.553 55.325C173.153 54.725 172.953 54.05 172.953 53.3C172.953 52.4 173.186 51.6917 173.653 51.175C174.119 50.6417 174.878 50.2667 175.928 50.05C176.978 49.8167 178.369 49.7 180.103 49.7H181.428V51.65H180.128C179.478 51.65 178.928 51.675 178.478 51.725C178.044 51.775 177.686 51.8667 177.403 52C177.119 52.1167 176.911 52.2667 176.778 52.45C176.661 52.6333 176.603 52.8667 176.603 53.15C176.603 53.6167 176.761 54 177.078 54.3C177.411 54.6 177.886 54.75 178.503 54.75C178.986 54.75 179.411 54.6417 179.778 54.425C180.161 54.1917 180.461 53.8833 180.678 53.5C180.894 53.1 181.003 52.65 181.003 52.15V49.275C181.003 48.5417 180.836 48.025 180.503 47.725C180.169 47.4083 179.603 47.25 178.803 47.25C178.136 47.25 177.428 47.3583 176.678 47.575C175.944 47.775 175.211 48.0833 174.478 48.5L173.453 45.975C173.886 45.675 174.411 45.4167 175.028 45.2C175.661 44.9667 176.319 44.7917 177.003 44.675C177.686 44.5417 178.336 44.475 178.953 44.475C180.236 44.475 181.286 44.6667 182.103 45.05C182.936 45.4167 183.561 45.9917 183.978 46.775C184.394 47.5417 184.603 48.5333 184.603 49.75V57H181.078V54.525H181.253C181.153 55.0917 180.936 55.5833 180.603 56C180.286 56.4 179.878 56.7167 179.378 56.95C178.878 57.1667 178.303 57.275 177.653 57.275ZM193.394 57.275C192.06 57.275 190.894 57.0167 189.894 56.5C188.91 55.9667 188.152 55.2167 187.619 54.25C187.085 53.2833 186.819 52.1417 186.819 50.825C186.819 49.5083 187.085 48.375 187.619 47.425C188.152 46.475 188.91 45.75 189.894 45.25C190.894 44.7333 192.06 44.475 193.394 44.475C194.194 44.475 194.985 44.5917 195.769 44.825C196.569 45.0583 197.219 45.3917 197.719 45.825L196.669 48.425C196.269 48.0917 195.802 47.8333 195.269 47.65C194.735 47.45 194.235 47.35 193.769 47.35C192.785 47.35 192.019 47.6583 191.469 48.275C190.935 48.875 190.669 49.7333 190.669 50.85C190.669 51.95 190.935 52.8167 191.469 53.45C192.019 54.0667 192.785 54.375 193.769 54.375C194.235 54.375 194.735 54.2833 195.269 54.1C195.802 53.9167 196.269 53.65 196.669 53.3L197.719 55.9C197.219 56.3167 196.569 56.65 195.769 56.9C194.969 57.15 194.177 57.275 193.394 57.275ZM199.207 42.35V38.825H203.282V42.35H199.207ZM199.357 57V44.725H203.132V57H199.357ZM211.947 57.275C210.63 57.275 209.48 57.0167 208.497 56.5C207.53 55.9833 206.78 55.2417 206.247 54.275C205.713 53.3083 205.447 52.1667 205.447 50.85C205.447 49.5333 205.713 48.4 206.247 47.45C206.78 46.5 207.53 45.7667 208.497 45.25C209.48 44.7333 210.63 44.475 211.947 44.475C213.263 44.475 214.405 44.7333 215.372 45.25C216.355 45.7667 217.113 46.5083 217.647 47.475C218.197 48.425 218.472 49.55 218.472 50.85C218.472 52.1667 218.197 53.3083 217.647 54.275C217.113 55.2417 216.355 55.9833 215.372 56.5C214.405 57.0167 213.263 57.275 211.947 57.275ZM211.947 54.45C212.763 54.45 213.422 54.1583 213.922 53.575C214.422 52.975 214.672 52.0667 214.672 50.85C214.672 49.6333 214.422 48.7417 213.922 48.175C213.422 47.5917 212.763 47.3 211.947 47.3C211.147 47.3 210.497 47.5917 209.997 48.175C209.497 48.7417 209.247 49.6333 209.247 50.85C209.247 52.0667 209.497 52.975 209.997 53.575C210.497 54.1583 211.147 54.45 211.947 54.45ZM210.697 43.125L213.272 38H216.872L213.197 43.125H210.697ZM220.768 57V44.725H224.468V47.025H224.193C224.577 46.2083 225.143 45.5833 225.893 45.15C226.66 44.7 227.527 44.475 228.493 44.475C229.477 44.475 230.285 44.6667 230.918 45.05C231.552 45.4167 232.027 45.9833 232.343 46.75C232.66 47.5 232.818 48.4583 232.818 49.625V57H229.043V49.8C229.043 49.2333 228.968 48.775 228.818 48.425C228.685 48.0583 228.477 47.8 228.193 47.65C227.927 47.4833 227.585 47.4 227.168 47.4C226.635 47.4 226.168 47.5167 225.768 47.75C225.385 47.9667 225.085 48.2833 224.868 48.7C224.652 49.1167 224.543 49.6 224.543 50.15V57H220.768Z" fill="#4880FF"/>
<path d="M17.75 57L17.2957 56.7912L16.9699 57.5H17.75V57ZM25.85 39.375V38.875H25.5295L25.3957 39.1662L25.85 39.375ZM28.975 39.375L29.4293 39.1662L29.2955 38.875H28.975V39.375ZM37.075 57V57.5H37.8551L37.5293 56.7912L37.075 57ZM33.175 57L32.7154 57.197L32.8453 57.5H33.175V57ZM31.075 52.1L31.3599 51.6891L29.9299 50.6973L30.6154 52.297L31.075 52.1ZM32.625 53.175V53.675H34.2233L32.91 52.7641L32.625 53.175ZM22.2 53.175L21.9151 52.7641L20.6017 53.675H22.2V53.175ZM23.75 52.1L24.2104 52.295L24.8836 50.7053L23.4651 51.6891L23.75 52.1ZM21.675 57V57.5H22.0062L22.1354 57.195L21.675 57ZM27.375 43.5V43H27.0426L26.914 43.3065L27.375 43.5ZM24.175 51.125L23.7639 51.4096L24.2831 52.1595L24.636 51.3185L24.175 51.125ZM23.5 50.15V49.65H22.5457L23.0889 50.4346L23.5 50.15ZM31.325 50.15L31.7361 50.4346L32.2793 49.65H31.325V50.15ZM30.65 51.125L30.1895 51.3198L30.5436 52.1571L31.0611 51.4096L30.65 51.125ZM27.425 43.5L27.8855 43.3052L27.7564 43H27.425V43.5ZM18.2043 57.2088L26.3043 39.5838L25.3957 39.1662L17.2957 56.7912L18.2043 57.2088ZM25.85 39.875H28.975V38.875H25.85V39.875ZM28.5207 39.5838L36.6207 57.2088L37.5293 56.7912L29.4293 39.1662L28.5207 39.5838ZM37.075 56.5H33.175V57.5H37.075V56.5ZM33.6346 56.803L31.5346 51.903L30.6154 52.297L32.7154 57.197L33.6346 56.803ZM30.7901 52.5109L32.3401 53.5859L32.91 52.7641L31.3599 51.6891L30.7901 52.5109ZM32.625 52.675H22.2V53.675H32.625V52.675ZM22.4849 53.5859L24.0349 52.5109L23.4651 51.6891L21.9151 52.7641L22.4849 53.5859ZM23.2896 51.905L21.2146 56.805L22.1354 57.195L24.2104 52.295L23.2896 51.905ZM21.675 56.5H17.75V57.5H21.675V56.5ZM26.914 43.3065L23.714 50.9315L24.636 51.3185L27.836 43.6935L26.914 43.3065ZM24.5861 50.8404L23.9111 49.8654L23.0889 50.4346L23.7639 51.4096L24.5861 50.8404ZM23.5 50.65H31.325V49.65H23.5V50.65ZM30.9139 49.8654L30.2389 50.8404L31.0611 51.4096L31.7361 50.4346L30.9139 49.8654ZM31.1105 50.9302L27.8855 43.3052L26.9645 43.6948L30.1895 51.3198L31.1105 50.9302ZM27.425 43H27.375V44H27.425V43ZM38.2732 61.5H37.7732V62H38.2732V61.5ZM38.2732 44.725V44.225H37.7732V44.725H38.2732ZM41.9732 44.725H42.4732V44.225H41.9732V44.725ZM41.9732 47.15V47.65H42.4732V47.15H41.9732ZM41.7232 47.15L41.246 47.0009L41.0431 47.65H41.7232V47.15ZM43.2232 45.225L43.4941 45.6453L43.4964 45.6438L43.2232 45.225ZM48.6482 45.25L48.377 45.67L48.3809 45.6725L48.6482 45.25ZM50.5482 47.45L51.0001 47.236L51.0001 47.236L50.5482 47.45ZM50.5482 54.275L51.0015 54.486L51.0015 54.486L50.5482 54.275ZM48.6732 56.5L48.9445 56.92L48.9445 56.92L48.6732 56.5ZM43.2732 56.575L43.0024 56.9953L43.0091 56.9995L43.2732 56.575ZM41.7482 54.7V54.2H41.0449L41.276 54.8643L41.7482 54.7ZM42.0482 54.7H42.5482V54.2H42.0482V54.7ZM42.0482 61.5V62H42.5482V61.5H42.0482ZM46.6732 53.575L47.0529 53.9004L47.0574 53.8951L46.6732 53.575ZM46.6732 48.175L46.2936 48.5004L46.2983 48.5058L46.6732 48.175ZM42.7482 48.175L43.1232 48.5058L43.1279 48.5004L42.7482 48.175ZM42.7482 53.575L42.3641 53.8951L42.3686 53.9004L42.7482 53.575ZM38.7732 61.5V44.725H37.7732V61.5H38.7732ZM38.2732 45.225H41.9732V44.225H38.2732V45.225ZM41.4732 44.725V47.15H42.4732V44.725H41.4732ZM41.9732 46.65H41.7232V47.65H41.9732V46.65ZM42.2005 47.2991C42.4132 46.6184 42.8357 46.0696 43.4941 45.6453L42.9524 44.8047C42.1108 45.3471 41.5333 46.0816 41.246 47.0009L42.2005 47.2991ZM43.4964 45.6438C44.1757 45.2008 44.9544 44.975 45.8482 44.975V43.975C44.7755 43.975 43.8041 44.2492 42.9501 44.8062L43.4964 45.6438ZM45.8482 44.975C46.8306 44.975 47.6673 45.2117 48.377 45.67L48.9195 44.83C48.0292 44.255 46.9992 43.975 45.8482 43.975V44.975ZM48.3809 45.6725C49.1106 46.1342 49.6832 46.7918 50.0964 47.664L51.0001 47.236C50.5133 46.2082 49.8192 45.3992 48.9156 44.8275L48.3809 45.6725ZM50.0964 47.664C50.5077 48.5324 50.7232 49.5892 50.7232 50.85H51.7232C51.7232 49.4775 51.4888 48.2676 51.0001 47.236L50.0964 47.664ZM50.7232 50.85C50.7232 52.1105 50.5078 53.177 50.095 54.064L51.0015 54.486C51.4886 53.4396 51.7232 52.2229 51.7232 50.85H50.7232ZM50.095 54.064C49.6798 54.9558 49.1136 55.6204 48.402 56.08L48.9445 56.92C49.8329 56.3463 50.5167 55.5276 51.0015 54.486L50.095 54.064ZM48.402 56.08C47.6935 56.5375 46.849 56.775 45.8482 56.775V57.775C47.0142 57.775 48.0529 57.4958 48.9445 56.92L48.402 56.08ZM45.8482 56.775C44.9658 56.775 44.2007 56.5632 43.5374 56.1505L43.0091 56.9995C43.8458 57.5201 44.7973 57.775 45.8482 57.775V56.775ZM43.5441 56.1547C42.878 55.7255 42.4468 55.1864 42.2205 54.5357L41.276 54.8643C41.583 55.7469 42.1684 56.4578 43.0024 56.9953L43.5441 56.1547ZM41.7482 55.2H42.0482V54.2H41.7482V55.2ZM41.5482 54.7V61.5H42.5482V54.7H41.5482ZM42.0482 61H38.2732V62H42.0482V61ZM44.7232 54.95C45.6623 54.95 46.4535 54.5997 47.0529 53.9004L46.2936 53.2496C45.893 53.717 45.3842 53.95 44.7232 53.95V54.95ZM47.0574 53.8951C47.6641 53.167 47.9232 52.1218 47.9232 50.85H46.9232C46.9232 52.0116 46.6824 52.783 46.2891 53.2549L47.0574 53.8951ZM47.9232 50.85C47.9232 49.5816 47.6654 48.5438 47.0482 47.8442L46.2983 48.5058C46.6811 48.9396 46.9232 49.6851 46.9232 50.85H47.9232ZM47.0529 47.8496C46.4535 47.1503 45.6623 46.8 44.7232 46.8V47.8C45.3842 47.8 45.893 48.033 46.2936 48.5004L47.0529 47.8496ZM44.7232 46.8C43.7711 46.8 42.9702 47.1477 42.3686 47.8496L43.1279 48.5004C43.5263 48.0356 44.0421 47.8 44.7232 47.8V46.8ZM42.3733 47.8442C41.7561 48.5438 41.4982 49.5816 41.4982 50.85H42.4982C42.4982 49.6851 42.7404 48.9396 43.1232 48.5058L42.3733 47.8442ZM41.4982 50.85C41.4982 52.1218 41.7574 53.167 42.3641 53.8951L43.1324 53.2549C42.7391 52.783 42.4982 52.0116 42.4982 50.85H41.4982ZM42.3686 53.9004C42.9702 54.6023 43.7711 54.95 44.7232 54.95V53.95C44.0421 53.95 43.5263 53.7144 43.1279 53.2496L42.3686 53.9004ZM53.382 42.35H52.882V42.85H53.382V42.35ZM53.382 38.825V38.325H52.882V38.825H53.382ZM57.457 38.825H57.957V38.325H57.457V38.825ZM57.457 42.35V42.85H57.957V42.35H57.457ZM53.532 57H53.032V57.5H53.532V57ZM53.532 44.725V44.225H53.032V44.725H53.532ZM57.307 44.725H57.807V44.225H57.307V44.725ZM57.307 57V57.5H57.807V57H57.307ZM53.882 42.35V38.825H52.882V42.35H53.882ZM53.382 39.325H57.457V38.325H53.382V39.325ZM56.957 38.825V42.35H57.957V38.825H56.957ZM57.457 41.85H53.382V42.85H57.457V41.85ZM54.032 57V44.725H53.032V57H54.032ZM53.532 45.225H57.307V44.225H53.532V45.225ZM56.807 44.725V57H57.807V44.725H56.807ZM57.307 56.5H53.532V57.5H57.307V56.5ZM69.1295 56.5L68.8582 56.92L68.8622 56.9225L69.1295 56.5ZM67.2545 54.275L66.8012 54.486L67.2545 54.275ZM67.2545 47.45L66.8026 47.236L66.8026 47.236L67.2545 47.45ZM69.1295 45.25L68.8622 44.8274L68.8582 44.83L69.1295 45.25ZM74.5045 45.175L74.236 45.5969L74.2403 45.5995L74.5045 45.175ZM76.0295 47V47.5H76.7379L76.5006 46.8325L76.0295 47ZM75.7545 47H75.2545V47.5H75.7545V47ZM75.7545 39.375V38.875H75.2545V39.375H75.7545ZM79.5295 39.375H80.0295V38.875H79.5295V39.375ZM79.5295 57V57.5H80.0295V57H79.5295ZM75.8295 57H75.3295V57.5H75.8295V57ZM75.8295 54.575V54.075H75.3295V54.575H75.8295ZM76.0545 54.575L76.5353 54.7124L76.7174 54.075H76.0545V54.575ZM74.5545 56.55L74.8253 56.9703L74.8276 56.9688L74.5545 56.55ZM75.0545 53.575L75.4342 53.9004L75.4386 53.8951L75.0545 53.575ZM75.0545 48.175L74.6748 48.5004L74.6796 48.5058L75.0545 48.175ZM71.1295 48.175L71.5044 48.5058L71.5091 48.5004L71.1295 48.175ZM71.1295 53.575L70.7453 53.8951L70.7499 53.9004L71.1295 53.575ZM71.9545 56.775C70.9723 56.775 70.1253 56.5384 69.3968 56.0775L68.8622 56.9225C69.767 57.495 70.8033 57.775 71.9545 57.775V56.775ZM69.4008 56.08C68.6891 55.6204 68.1229 54.9558 67.7078 54.064L66.8012 54.486C67.2861 55.5276 67.9698 56.3463 68.8582 56.92L69.4008 56.08ZM67.7078 54.064C67.2949 53.177 67.0795 52.1105 67.0795 50.85H66.0795C66.0795 52.2229 66.3141 53.4396 66.8012 54.486L67.7078 54.064ZM67.0795 50.85C67.0795 49.5892 67.295 48.5324 67.7064 47.664L66.8026 47.236C66.314 48.2676 66.0795 49.4775 66.0795 50.85H67.0795ZM67.7064 47.664C68.1208 46.7892 68.6869 46.131 69.4008 45.67L68.8582 44.83C67.972 45.4023 67.2882 46.2108 66.8026 47.236L67.7064 47.664ZM69.3968 45.6725C70.1253 45.2116 70.9723 44.975 71.9545 44.975V43.975C70.8033 43.975 69.767 44.255 68.8622 44.8275L69.3968 45.6725ZM71.9545 44.975C72.8371 44.975 73.5918 45.1868 74.2361 45.5968L74.7729 44.7532C73.9506 44.2298 73.0052 43.975 71.9545 43.975V44.975ZM74.2403 45.5995C74.9054 46.0134 75.3338 46.5359 75.5584 47.1675L76.5006 46.8325C76.1918 45.9641 75.6035 45.27 74.7686 44.7505L74.2403 45.5995ZM76.0295 46.5H75.7545V47.5H76.0295V46.5ZM76.2545 47V39.375H75.2545V47H76.2545ZM75.7545 39.875H79.5295V38.875H75.7545V39.875ZM79.0295 39.375V57H80.0295V39.375H79.0295ZM79.5295 56.5H75.8295V57.5H79.5295V56.5ZM76.3295 57V54.575H75.3295V57H76.3295ZM75.8295 55.075H76.0545V54.075H75.8295V55.075ZM75.5737 54.4376C75.3761 55.1292 74.9557 55.6914 74.2814 56.1312L74.8276 56.9688C75.6867 56.4086 76.2662 55.6541 76.5353 54.7124L75.5737 54.4376ZM74.2836 56.1297C73.6225 56.5558 72.8519 56.775 71.9545 56.775V57.775C73.0237 57.775 73.9864 57.5109 74.8253 56.9703L74.2836 56.1297ZM73.0795 54.95C74.0317 54.95 74.8325 54.6023 75.4341 53.9004L74.6749 53.2496C74.2765 53.7144 73.7607 53.95 73.0795 53.95V54.95ZM75.4386 53.8951C76.0453 53.167 76.3045 52.1218 76.3045 50.85H75.3045C75.3045 52.0116 75.0637 52.783 74.6704 53.2549L75.4386 53.8951ZM76.3045 50.85C76.3045 49.5816 76.0467 48.5438 75.4294 47.8442L74.6796 48.5058C75.0623 48.9396 75.3045 49.6851 75.3045 50.85H76.3045ZM75.4341 47.8496C74.8325 47.1477 74.0317 46.8 73.0795 46.8V47.8C73.7607 47.8 74.2765 48.0356 74.6749 48.5004L75.4341 47.8496ZM73.0795 46.8C72.1404 46.8 71.3493 47.1503 70.7499 47.8496L71.5091 48.5004C71.9097 48.033 72.4186 47.8 73.0795 47.8V46.8ZM70.7546 47.8442C70.1373 48.5438 69.8795 49.5816 69.8795 50.85H70.8795C70.8795 49.6851 71.1217 48.9396 71.5044 48.5058L70.7546 47.8442ZM69.8795 50.85C69.8795 52.1218 70.1387 53.167 70.7454 53.8951L71.5136 53.2549C71.1203 52.783 70.8795 52.0116 70.8795 50.85H69.8795ZM70.7499 53.9004C71.3493 54.5997 72.1404 54.95 73.0795 54.95V53.95C72.4186 53.95 71.9097 53.717 71.5091 53.2496L70.7499 53.9004ZM85.0633 56.5L84.8339 56.9444L84.8425 56.9486L85.0633 56.5ZM82.6633 54.275L82.2286 54.5223L82.2339 54.5311L82.6633 54.275ZM82.6383 47.55L83.0743 47.7948L83.0761 47.7915L82.6383 47.55ZM84.8633 45.3L85.1081 45.736L85.1105 45.7346L84.8633 45.3ZM91.2383 45.25L90.9822 45.6795L90.9884 45.6831L91.2383 45.25ZM93.2383 47.4L92.791 47.6236L92.7943 47.6299L93.2383 47.4ZM93.9633 51.675V52.175H94.4633V51.675H93.9633ZM84.9383 51.675H84.4383V52.175H84.9383V51.675ZM84.9383 49.725V49.225H84.4383V49.725H84.9383ZM91.2383 49.725L91.5675 50.1013L92.569 49.225H91.2383V49.725ZM90.8383 50.075H90.3383V51.1769L91.1675 50.4513L90.8383 50.075ZM90.1633 47.775L89.7752 48.0903L89.7806 48.0969L89.7862 48.1034L90.1633 47.775ZM86.7133 47.4L86.9869 47.8185L86.9869 47.8185L86.7133 47.4ZM85.7383 52.85L85.2831 53.0569L85.2869 53.0653L85.2911 53.0736L85.7383 52.85ZM86.9133 54.05L86.6839 54.4943L86.6897 54.4972L86.9133 54.05ZM90.9133 54.15L90.7728 53.6701L90.7728 53.6701L90.9133 54.15ZM92.7633 53.225L93.2282 53.0409L92.9859 52.4291L92.4614 52.8265L92.7633 53.225ZM93.7633 55.75L94.065 56.1487L94.3681 55.9193L94.2282 55.5659L93.7633 55.75ZM91.4883 56.875L91.6328 57.3537L91.6384 57.3519L91.4883 56.875ZM88.8133 56.775C87.4219 56.775 86.2509 56.5271 85.284 56.0514L84.8425 56.9486C85.9757 57.5062 87.3046 57.775 88.8133 57.775V56.775ZM85.2926 56.0557C84.3378 55.5629 83.609 54.8845 83.0927 54.0189L82.2339 54.5311C82.8509 55.5655 83.7221 56.3705 84.834 56.9443L85.2926 56.0557ZM83.0979 54.0277C82.5975 53.1483 82.3383 52.1031 82.3383 50.875H81.3383C81.3383 52.2469 81.6291 53.4684 82.2287 54.5223L83.0979 54.0277ZM82.3383 50.875C82.3383 49.68 82.5893 48.6586 83.0743 47.7948L82.2023 47.3052C81.6206 48.3414 81.3383 49.5367 81.3383 50.875H82.3383ZM83.0761 47.7915C83.5651 46.9052 84.2404 46.2231 85.108 45.736L84.6185 44.864C83.5862 45.4436 82.7782 46.2614 82.2005 47.3085L83.0761 47.7915ZM85.1105 45.7346C85.9949 45.2314 86.9999 44.975 88.1383 44.975V43.975C86.8433 43.975 85.665 44.2686 84.616 44.8654L85.1105 45.7346ZM88.1383 44.975C89.2653 44.975 90.2065 45.217 90.9822 45.6795L91.4943 44.8205C90.5367 44.2496 89.4112 43.975 88.1383 43.975V44.975ZM90.9884 45.6831C91.7664 46.1319 92.3662 46.774 92.7911 47.6236L93.6855 47.1764C93.177 46.1594 92.4435 45.3681 91.4881 44.8169L90.9884 45.6831ZM92.7943 47.6299C93.2336 48.4782 93.4633 49.5042 93.4633 50.725H94.4633C94.4633 49.3791 94.2097 48.1885 93.6823 47.1701L92.7943 47.6299ZM93.4633 50.725V51.675H94.4633V50.725H93.4633ZM93.9633 51.175H84.9383V52.175H93.9633V51.175ZM85.4383 51.675V49.725H84.4383V51.675H85.4383ZM84.9383 50.225H91.2383V49.225H84.9383V50.225ZM90.909 49.3487L90.509 49.6987L91.1675 50.4513L91.5675 50.1013L90.909 49.3487ZM91.3383 50.075C91.3383 48.9944 91.1003 48.0896 90.5403 47.4466L89.7862 48.1034C90.1263 48.4938 90.3383 49.1222 90.3383 50.075H91.3383ZM90.5513 47.4597C90.0048 46.7871 89.224 46.475 88.2883 46.475V47.475C88.9859 47.475 89.4551 47.6963 89.7752 48.0903L90.5513 47.4597ZM88.2883 46.475C87.5933 46.475 86.9688 46.6355 86.4397 46.9815L86.9869 47.8185C87.3244 47.5978 87.75 47.475 88.2883 47.475V46.475ZM86.4397 46.9815C85.9151 47.3245 85.5225 47.8136 85.2552 48.4246L86.1714 48.8254C86.3707 48.3697 86.6448 48.0422 86.9869 47.8185L86.4397 46.9815ZM85.2552 48.4246C84.9875 49.0365 84.8633 49.7501 84.8633 50.55H85.8633C85.8633 49.8499 85.9724 49.2801 86.1714 48.8254L85.2552 48.4246ZM84.8633 50.55V50.75H85.8633V50.55H84.8633ZM84.8633 50.75C84.8633 51.6443 84.9941 52.4211 85.2831 53.0569L86.1935 52.6431C85.9825 52.1789 85.8633 51.5557 85.8633 50.75H84.8633ZM85.2911 53.0736C85.6038 53.6991 86.0706 54.1777 86.684 54.4943L87.1426 53.6057C86.7227 53.389 86.4061 53.0675 86.1855 52.6264L85.2911 53.0736ZM86.6897 54.4972C87.3107 54.8077 88.0507 54.95 88.8883 54.95V53.95C88.1592 53.95 87.5825 53.8256 87.1369 53.6028L86.6897 54.4972ZM88.8883 54.95C89.6056 54.95 90.3279 54.8423 91.0537 54.6299L90.7728 53.6701C90.132 53.8577 89.5043 53.95 88.8883 53.95V54.95ZM91.0537 54.6299C91.7935 54.4134 92.4652 54.0781 93.0652 53.6235L92.4614 52.8265C91.9613 53.2053 91.3997 53.4866 90.7728 53.6701L91.0537 54.6299ZM92.2984 53.4091L93.2984 55.9341L94.2282 55.5659L93.2282 53.0409L92.2984 53.4091ZM93.4616 55.3513C92.8994 55.7767 92.1951 56.1283 91.3381 56.3981L91.6384 57.3519C92.5814 57.0551 93.3939 56.6566 94.065 56.1487L93.4616 55.3513ZM91.3438 56.3963C90.5061 56.6492 89.6631 56.775 88.8133 56.775V57.775C89.7635 57.775 90.7038 57.6341 91.6328 57.3537L91.3438 56.3963ZM104.067 57H103.567V57.5H104.067V57ZM104.067 47.55H104.567V47.05H104.067V47.55ZM101.742 47.55H101.242V48.05H101.742V47.55ZM101.742 44.725V44.225H101.242V44.725H101.742ZM105.167 44.725L105.503 45.095L106.46 44.225H105.167V44.725ZM104.067 45.725H103.567V46.8553L104.403 46.095L104.067 45.725ZM105.517 40.875L105.858 41.241L105.861 41.2378L105.517 40.875ZM110.042 39.325L110.07 39.8243L110.078 39.8237L110.042 39.325ZM111.417 39.225L111.915 39.1842L111.875 38.6904L111.381 38.7263L111.417 39.225ZM111.642 41.975L111.674 42.474L112.182 42.4416L112.14 41.9342L111.642 41.975ZM110.467 42.05L110.493 42.5494L110.499 42.549L110.467 42.05ZM108.917 42.375L109.116 42.8335L109.125 42.8299L109.133 42.8261L108.917 42.375ZM108.092 43.1L108.529 43.3429L108.534 43.3329L108.092 43.1ZM107.842 45.15L107.509 45.5226L108.342 46.2683V45.15H107.842ZM107.367 44.725V44.225H106.058L107.034 45.0976L107.367 44.725ZM111.042 44.725H111.542V44.225H111.042V44.725ZM111.042 47.55V48.05H111.542V47.55H111.042ZM107.842 47.55V47.05H107.342V47.55H107.842ZM107.842 57V57.5H108.342V57H107.842ZM104.567 57V47.55H103.567V57H104.567ZM104.067 47.05H101.742V48.05H104.067V47.05ZM102.242 47.55V44.725H101.242V47.55H102.242ZM101.742 45.225H105.167V44.225H101.742V45.225ZM104.831 44.355L103.731 45.355L104.403 46.095L105.503 45.095L104.831 44.355ZM104.567 45.725V44.95H103.567V45.725H104.567ZM104.567 44.95C104.567 43.2183 105.026 42.015 105.858 41.2409L105.176 40.5091C104.074 41.535 103.567 43.0484 103.567 44.95H104.567ZM105.861 41.2378C106.706 40.4364 108.077 39.9376 110.07 39.8242L110.014 38.8258C107.907 38.9457 106.261 39.4802 105.173 40.5122L105.861 41.2378ZM110.078 39.8237L111.453 39.7237L111.381 38.7263L110.006 38.8263L110.078 39.8237ZM110.919 39.2658L111.144 42.0158L112.14 41.9342L111.915 39.1842L110.919 39.2658ZM111.61 41.476L110.435 41.551L110.499 42.549L111.674 42.474L111.61 41.476ZM110.441 41.5507C109.757 41.5858 109.167 41.7011 108.701 41.9239L109.133 42.8261C109.433 42.6822 109.877 42.5809 110.493 42.5493L110.441 41.5507ZM108.718 41.9165C108.248 42.1205 107.878 42.4334 107.65 42.8671L108.534 43.3329C108.64 43.1333 108.819 42.9628 109.116 42.8335L108.718 41.9165ZM107.655 42.8572C107.432 43.2577 107.342 43.7513 107.342 44.3H108.342C108.342 43.8487 108.418 43.5423 108.529 43.3428L107.655 42.8572ZM107.342 44.3V45.15H108.342V44.3H107.342ZM108.175 44.7774L107.7 44.3524L107.034 45.0976L107.509 45.5226L108.175 44.7774ZM107.367 45.225H111.042V44.225H107.367V45.225ZM110.542 44.725V47.55H111.542V44.725H110.542ZM111.042 47.05H107.842V48.05H111.042V47.05ZM107.342 47.55V57H108.342V47.55H107.342ZM107.842 56.5H104.067V57.5H107.842V56.5ZM114.266 56.75L114.485 56.3007L114.266 56.75ZM112.591 55.325L112.175 55.6024L112.175 55.6024L112.591 55.325ZM112.691 51.175L113.062 51.5102L113.067 51.5043L112.691 51.175ZM114.966 50.05L115.067 50.5397L115.074 50.5381L114.966 50.05ZM120.466 49.7H120.966V49.2H120.466V49.7ZM120.466 51.65V52.15H120.966V51.65H120.466ZM117.516 51.725L117.461 51.2281L117.459 51.2283L117.516 51.725ZM116.441 52L116.631 52.4623L116.643 52.4577L116.654 52.4524L116.441 52ZM115.816 52.45L115.411 52.1559L115.402 52.1685L115.394 52.1816L115.816 52.45ZM116.116 54.3L115.772 54.6631L115.781 54.6716L116.116 54.3ZM118.816 54.425L119.07 54.8555L119.076 54.8521L118.816 54.425ZM119.716 53.5L120.151 53.7461L120.155 53.7381L119.716 53.5ZM119.541 47.725L119.196 48.0876L119.206 48.0966L119.541 47.725ZM115.716 47.575L115.847 48.0574L115.855 48.0554L115.716 47.575ZM113.516 48.5L113.053 48.6881L113.267 49.2164L113.763 48.9347L113.516 48.5ZM112.491 45.975L112.206 45.5639L111.877 45.7919L112.028 46.1631L112.491 45.975ZM114.066 45.2L114.232 45.6718L114.239 45.6692L114.066 45.2ZM116.041 44.675L116.125 45.168L116.137 45.1657L116.041 44.675ZM121.141 45.05L120.928 45.5028L120.939 45.5077L121.141 45.05ZM123.016 46.775L122.574 47.0098L122.577 47.0138L123.016 46.775ZM123.641 57V57.5H124.141V57H123.641ZM120.116 57H119.616V57.5H120.116V57ZM120.116 54.525V54.025H119.616V54.525H120.116ZM120.291 54.525L120.783 54.6119L120.887 54.025H120.291V54.525ZM119.641 56L119.25 55.6876L119.249 55.6896L119.641 56ZM118.416 56.95L118.615 57.409L118.627 57.4031L118.416 56.95ZM116.691 56.775C115.857 56.775 115.125 56.6133 114.485 56.3007L114.046 57.1993C114.84 57.5867 115.725 57.775 116.691 57.775V56.775ZM114.485 56.3007C113.84 55.9854 113.353 55.5663 113.007 55.0476L112.175 55.6024C112.629 56.2837 113.259 56.8146 114.046 57.1993L114.485 56.3007ZM113.007 55.0476C112.664 54.5332 112.491 53.9555 112.491 53.3H111.491C111.491 54.1445 111.718 54.9168 112.175 55.6024L113.007 55.0476ZM112.491 53.3C112.491 52.4865 112.7 51.9106 113.062 51.5101L112.32 50.8399C111.748 51.4728 111.491 52.3135 111.491 53.3H112.491ZM113.067 51.5043C113.434 51.0855 114.072 50.745 115.067 50.5397L114.865 49.5603C113.76 49.7883 112.881 50.1978 112.315 50.8457L113.067 51.5043ZM115.074 50.5381C116.074 50.316 117.425 50.2 119.141 50.2V49.2C117.39 49.2 115.958 49.3174 114.857 49.5619L115.074 50.5381ZM119.141 50.2H120.466V49.2H119.141V50.2ZM119.966 49.7V51.65H120.966V49.7H119.966ZM120.466 51.15H119.166V52.15H120.466V51.15ZM119.166 51.15C118.505 51.15 117.935 51.1754 117.461 51.2281L117.571 52.2219C117.997 52.1746 118.527 52.15 119.166 52.15V51.15ZM117.459 51.2283C116.991 51.2823 116.575 51.384 116.228 51.5476L116.654 52.4524C116.873 52.3493 117.174 52.2677 117.573 52.2217L117.459 51.2283ZM116.25 51.5377C115.911 51.6776 115.615 51.8759 115.411 52.1559L116.22 52.7441C116.283 52.6575 116.404 52.5558 116.631 52.4623L116.25 51.5377ZM115.394 52.1816C115.213 52.4661 115.141 52.8 115.141 53.15H116.141C116.141 52.9334 116.185 52.8005 116.238 52.7184L115.394 52.1816ZM115.141 53.15C115.141 53.7433 115.348 54.2614 115.772 54.663L116.46 53.937C116.25 53.7386 116.141 53.4901 116.141 53.15H115.141ZM115.781 54.6716C116.236 55.0809 116.847 55.25 117.541 55.25V54.25C117.001 54.25 116.662 54.1191 116.45 53.9284L115.781 54.6716ZM117.541 55.25C118.101 55.25 118.617 55.1235 119.07 54.8555L118.561 53.9945C118.282 54.1598 117.947 54.25 117.541 54.25V55.25ZM119.076 54.8521C119.531 54.5753 119.892 54.2052 120.151 53.746L119.281 53.254C119.107 53.5615 118.868 53.8081 118.556 53.9979L119.076 54.8521ZM120.155 53.7381C120.416 53.258 120.541 52.7247 120.541 52.15H119.541C119.541 52.5753 119.449 52.942 119.276 53.2619L120.155 53.7381ZM120.541 52.15V49.275H119.541V52.15H120.541ZM120.541 49.275C120.541 48.4872 120.365 47.794 119.875 47.3534L119.206 48.0966C119.383 48.256 119.541 48.5961 119.541 49.275H120.541ZM119.885 47.3625C119.411 46.9117 118.682 46.75 117.841 46.75V47.75C118.6 47.75 119.004 47.905 119.196 48.0875L119.885 47.3625ZM117.841 46.75C117.12 46.75 116.365 46.8671 115.577 47.0946L115.855 48.0554C116.567 47.8496 117.228 47.75 117.841 47.75V46.75ZM115.584 47.0926C114.806 47.3047 114.035 47.6302 113.269 48.0653L113.763 48.9347C114.464 48.5365 115.158 48.2453 115.847 48.0574L115.584 47.0926ZM113.979 48.3119L112.954 45.7869L112.028 46.1631L113.053 48.6881L113.979 48.3119ZM112.775 46.3861C113.164 46.1168 113.647 45.877 114.232 45.6717L113.9 44.7283C113.251 44.9564 112.684 45.2332 112.206 45.5639L112.775 46.3861ZM114.239 45.6692C114.842 45.4467 115.471 45.2795 116.125 45.1679L115.957 44.1821C115.244 44.3038 114.556 44.4866 113.893 44.7308L114.239 45.6692ZM116.137 45.1657C116.792 45.0378 117.41 44.975 117.991 44.975V43.975C117.338 43.975 116.656 44.0455 115.945 44.1843L116.137 45.1657ZM117.991 44.975C119.23 44.975 120.2 45.1608 120.928 45.5026L121.353 44.5974C120.448 44.1725 119.319 43.975 117.991 43.975V44.975ZM120.939 45.5077C121.673 45.8304 122.212 46.3284 122.574 47.0098L123.457 46.5402C122.986 45.655 122.275 45.003 121.342 44.5923L120.939 45.5077ZM122.577 47.0138C122.941 47.6839 123.141 48.5856 123.141 49.75H124.141C124.141 48.4811 123.924 47.3994 123.455 46.5362L122.577 47.0138ZM123.141 49.75V57H124.141V49.75H123.141ZM123.641 56.5H120.116V57.5H123.641V56.5ZM120.616 57V54.525H119.616V57H120.616ZM120.116 55.025H120.291V54.025H120.116V55.025ZM119.798 54.4381C119.712 54.9289 119.527 55.3415 119.25 55.6877L120.031 56.3123C120.421 55.8252 120.67 55.2544 120.783 54.6119L119.798 54.4381ZM119.249 55.6896C118.984 56.0238 118.64 56.2937 118.204 56.4969L118.627 57.4031C119.192 57.1396 119.664 56.7762 120.033 56.3104L119.249 55.6896ZM118.217 56.4912C117.791 56.676 117.285 56.775 116.691 56.775V57.775C117.396 57.775 118.041 57.6574 118.615 57.4088L118.217 56.4912ZM128.932 56.5L128.693 56.9396L128.702 56.9442L128.932 56.5ZM126.657 54.25L126.219 54.4915L126.219 54.4915L126.657 54.25ZM126.657 47.425L126.221 47.1802L126.221 47.1802L126.657 47.425ZM128.932 45.25L129.158 45.6957L129.161 45.6942L128.932 45.25ZM134.807 44.825L134.664 45.3042L134.667 45.305L134.807 44.825ZM136.757 45.825L137.22 46.0122L137.354 45.6811L137.084 45.4472L136.757 45.825ZM135.707 48.425L135.387 48.8091L135.914 49.2482L136.17 48.6122L135.707 48.425ZM134.307 47.65L134.131 48.1183L134.144 48.1228L134.307 47.65ZM130.507 48.275L130.134 47.9422L130.133 47.9428L130.507 48.275ZM130.507 53.45L130.124 53.7721L130.129 53.7775L130.134 53.7828L130.507 53.45ZM135.707 53.3L136.17 53.1128L135.907 52.4605L135.378 52.9237L135.707 53.3ZM136.757 55.9L137.077 56.2841L137.357 56.0508L137.22 55.7128L136.757 55.9ZM132.432 56.775C131.164 56.775 130.078 56.5296 129.161 56.0558L128.702 56.9442C129.785 57.5037 131.033 57.775 132.432 57.775V56.775ZM129.17 56.0605C128.27 55.5721 127.581 54.8903 127.095 54.0085L126.219 54.4915C126.799 55.5431 127.627 56.3612 128.693 56.9395L129.17 56.0605ZM127.095 54.0085C126.609 53.1288 126.357 52.0734 126.357 50.825H125.357C125.357 52.2099 125.638 53.4379 126.219 54.4915L127.095 54.0085ZM126.357 50.825C126.357 49.5762 126.609 48.5309 127.093 47.6698L126.221 47.1802C125.638 48.2191 125.357 49.4404 125.357 50.825H126.357ZM127.093 47.6698C127.577 46.8071 128.262 46.1515 129.158 45.6957L128.705 44.8043C127.635 45.3485 126.803 46.1429 126.221 47.1802L127.093 47.6698ZM129.161 45.6942C130.078 45.2204 131.164 44.975 132.432 44.975V43.975C131.033 43.975 129.785 44.2463 128.702 44.8058L129.161 45.6942ZM132.432 44.975C133.182 44.975 133.926 45.0844 134.664 45.3042L134.95 44.3458C134.121 44.099 133.281 43.975 132.432 43.975V44.975ZM134.667 45.305C135.415 45.5232 135.996 45.8272 136.429 46.2028L137.084 45.4472C136.518 44.9561 135.799 44.5934 134.947 44.345L134.667 45.305ZM136.293 45.6378L135.243 48.2378L136.17 48.6122L137.22 46.0122L136.293 45.6378ZM136.027 48.0409C135.576 47.6655 135.055 47.3786 134.469 47.1772L134.144 48.1228C134.625 48.2881 135.037 48.5178 135.387 48.8091L136.027 48.0409ZM134.482 47.1818C133.905 46.9653 133.345 46.85 132.807 46.85V47.85C133.202 47.85 133.642 47.9347 134.131 48.1182L134.482 47.1818ZM132.807 46.85C131.711 46.85 130.797 47.1989 130.134 47.9422L130.88 48.6078C131.317 48.1178 131.936 47.85 132.807 47.85V46.85ZM130.133 47.9428C129.491 48.6647 129.207 49.6588 129.207 50.85H130.207C130.207 49.8079 130.456 49.0853 130.881 48.6072L130.133 47.9428ZM129.207 50.85C129.207 52.0288 129.493 53.0226 130.124 53.7721L130.889 53.1279C130.454 52.6107 130.207 51.8712 130.207 50.85H129.207ZM130.134 53.7828C130.797 54.5261 131.711 54.875 132.807 54.875V53.875C131.936 53.875 131.317 53.6072 130.88 53.1172L130.134 53.7828ZM132.807 54.875C133.339 54.875 133.894 54.7705 134.469 54.5728L134.144 53.6272C133.653 53.7961 133.208 53.875 132.807 53.875V54.875ZM134.469 54.5728C135.06 54.3697 135.584 54.0715 136.036 53.6763L135.378 52.9237C135.029 53.2285 134.62 53.4636 134.144 53.6272L134.469 54.5728ZM135.243 53.4872L136.293 56.0872L137.22 55.7128L136.17 53.1128L135.243 53.4872ZM136.437 55.5159C135.999 55.8804 135.412 56.1869 134.658 56.4228L134.956 57.3772C135.801 57.1131 136.514 56.7529 137.077 56.2841L136.437 55.5159ZM134.658 56.4228C133.903 56.6587 133.161 56.775 132.432 56.775V57.775C133.269 57.775 134.111 57.6413 134.956 57.3772L134.658 56.4228ZM140.594 56L140.947 55.6464L140.594 56ZM139.319 47.55H139.819V47.05H139.319V47.55ZM136.994 47.55H136.494V48.05H136.994V47.55ZM136.994 44.725V44.225H136.494V44.725H136.994ZM139.319 44.725V45.225H139.819V44.725H139.319ZM139.319 41.125V40.625H138.819V41.125H139.319ZM143.094 41.125H143.594V40.625H143.094V41.125ZM143.094 44.725H142.594V45.225H143.094V44.725ZM146.719 44.725H147.219V44.225H146.719V44.725ZM146.719 47.55V48.05H147.219V47.55H146.719ZM143.094 47.55V47.05H142.594V47.55H143.094ZM143.569 53.675L143.198 54.0106L143.206 54.0198L143.569 53.675ZM145.819 54.125L145.72 53.6347L145.714 53.6361L145.819 54.125ZM146.619 53.925L147.109 53.8269L147.002 53.2911L146.477 53.4453L146.619 53.925ZM147.169 56.675L147.401 57.1179L147.732 56.9442L147.659 56.5769L147.169 56.675ZM145.919 57.1L145.817 56.6104L145.809 56.612L145.801 56.614L145.919 57.1ZM144.494 56.775C142.816 56.775 141.668 56.3672 140.947 55.6464L140.24 56.3536C141.219 57.3328 142.671 57.775 144.494 57.775V56.775ZM140.947 55.6464C140.221 54.9207 139.819 53.8179 139.819 52.25H138.819C138.819 53.9821 139.266 55.3793 140.24 56.3536L140.947 55.6464ZM139.819 52.25V47.55H138.819V52.25H139.819ZM139.319 47.05H136.994V48.05H139.319V47.05ZM137.494 47.55V44.725H136.494V47.55H137.494ZM136.994 45.225H139.319V44.225H136.994V45.225ZM139.819 44.725V41.125H138.819V44.725H139.819ZM139.319 41.625H143.094V40.625H139.319V41.625ZM142.594 41.125V44.725H143.594V41.125H142.594ZM143.094 45.225H146.719V44.225H143.094V45.225ZM146.219 44.725V47.55H147.219V44.725H146.219ZM146.719 47.05H143.094V48.05H146.719V47.05ZM142.594 47.55V52.1H143.594V47.55H142.594ZM142.594 52.1C142.594 52.8654 142.766 53.5328 143.198 54.0105L143.939 53.3395C143.738 53.1172 143.594 52.7346 143.594 52.1H142.594ZM143.206 54.0198C143.672 54.5083 144.356 54.7 145.144 54.7V53.7C144.498 53.7 144.132 53.5417 143.931 53.3302L143.206 54.0198ZM145.144 54.7C145.399 54.7 145.659 54.6705 145.923 54.6139L145.714 53.6361C145.511 53.6795 145.322 53.7 145.144 53.7V54.7ZM145.917 54.6153C146.183 54.562 146.464 54.4916 146.76 54.4047L146.477 53.4453C146.206 53.5251 145.954 53.588 145.72 53.6347L145.917 54.6153ZM146.128 54.0231L146.678 56.7731L147.659 56.5769L147.109 53.8269L146.128 54.0231ZM146.937 56.2321C146.636 56.3893 146.266 56.5176 145.817 56.6104L146.02 57.5896C146.538 57.4824 147.001 57.3274 147.401 57.1179L146.937 56.2321ZM145.801 56.614C145.354 56.722 144.918 56.775 144.494 56.775V57.775C145.002 57.775 145.517 57.7114 146.036 57.586L145.801 56.614ZM150.526 56.7L150.771 56.2639L150.771 56.2639L150.526 56.7ZM149.001 54.975L148.537 55.1625L148.542 55.1744L149.001 54.975ZM148.526 44.725V44.225H148.026V44.725H148.526ZM152.301 44.725H152.801V44.225H152.301V44.725ZM152.501 53.4L152.037 53.5857L152.04 53.594L152.501 53.4ZM153.101 54.125L152.836 54.549L152.851 54.5585L152.867 54.5669L153.101 54.125ZM155.451 54.025L155.705 54.4555L155.712 54.4513L155.719 54.4468L155.451 54.025ZM156.301 53.05L155.857 52.8193L155.854 52.8264L155.85 52.8336L156.301 53.05ZM156.626 44.725V44.225H156.126V44.725H156.626ZM160.401 44.725H160.901V44.225H160.401V44.725ZM160.401 57V57.5H160.901V57H160.401ZM156.726 57H156.226V57.5H156.726V57ZM156.726 54.6V54.1H156.226V54.6H156.726ZM157.101 54.6L157.56 54.798L157.861 54.1H157.101V54.6ZM155.526 56.575L155.808 56.9879L155.808 56.9879L155.526 56.575ZM153.101 56.775C152.127 56.775 151.359 56.5941 150.771 56.2639L150.281 57.1361C151.06 57.5726 152.008 57.775 153.101 57.775V56.775ZM150.771 56.2639C150.189 55.9377 149.752 55.4493 149.46 54.7756L148.542 55.1744C148.916 56.034 149.496 56.6956 150.281 57.1361L150.771 56.2639ZM149.465 54.7876C149.179 54.0811 149.026 53.1825 149.026 52.075H148.026C148.026 53.2675 148.19 54.3022 148.537 55.1624L149.465 54.7876ZM149.026 52.075V44.725H148.026V52.075H149.026ZM148.526 45.225H152.301V44.225H148.526V45.225ZM151.801 44.725V52.175H152.801V44.725H151.801ZM151.801 52.175C151.801 52.7012 151.873 53.1767 152.037 53.5857L152.965 53.2143C152.862 52.9566 152.801 52.6154 152.801 52.175H151.801ZM152.04 53.594C152.21 53.9965 152.474 54.3226 152.836 54.549L153.366 53.701C153.195 53.5941 153.059 53.4369 152.962 53.206L152.04 53.594ZM152.867 54.5669C153.243 54.7661 153.688 54.85 154.176 54.85V53.85C153.797 53.85 153.525 53.7839 153.335 53.6831L152.867 54.5669ZM154.176 54.85C154.736 54.85 155.252 54.7235 155.705 54.4555L155.197 53.5945C154.917 53.7598 154.582 53.85 154.176 53.85V54.85ZM155.719 54.4468C156.17 54.1602 156.514 53.7616 156.752 53.2664L155.85 52.8336C155.688 53.1717 155.465 53.4232 155.183 53.6032L155.719 54.4468ZM156.745 53.2807C157.005 52.7795 157.126 52.2055 157.126 51.575H156.126C156.126 52.0778 156.03 52.4872 155.857 52.8193L156.745 53.2807ZM157.126 51.575V44.725H156.126V51.575H157.126ZM156.626 45.225H160.401V44.225H156.626V45.225ZM159.901 44.725V57H160.901V44.725H159.901ZM160.401 56.5H156.726V57.5H160.401V56.5ZM157.226 57V54.6H156.226V57H157.226ZM156.726 55.1H157.101V54.1H156.726V55.1ZM156.642 54.402C156.308 55.1757 155.84 55.755 155.244 56.1621L155.808 56.9879C156.579 56.4617 157.161 55.7243 157.56 54.798L156.642 54.402ZM155.244 56.1621C154.654 56.5649 153.947 56.775 153.101 56.775V57.775C154.122 57.775 155.031 57.5184 155.808 56.9879L155.244 56.1621ZM163.322 57H162.822V57.5H163.322V57ZM163.322 44.725V44.225H162.822V44.725H163.322ZM167.022 44.725H167.522V44.225H167.022V44.725ZM167.022 47.725V48.225H167.522V47.725H167.022ZM166.772 47.725L166.282 47.6269L166.162 48.225H166.772V47.725ZM168.072 45.425L168.384 45.8154L168.386 45.8145L168.072 45.425ZM170.772 44.475L170.738 43.9761L170.735 43.9764L170.772 44.475ZM171.872 44.4L172.371 44.3647L172.336 43.8672L171.838 43.9012L171.872 44.4ZM172.097 47.575L172.15 48.0722L172.63 48.0214L172.596 47.5397L172.097 47.575ZM169.972 47.8L170.016 48.2982L170.025 48.2972L169.972 47.8ZM167.847 48.625L167.493 48.2714L167.487 48.2779L167.847 48.625ZM167.172 57V57.5H167.672V57H167.172ZM163.822 57V44.725H162.822V57H163.822ZM163.322 45.225H167.022V44.225H163.322V45.225ZM166.522 44.725V47.725H167.522V44.725H166.522ZM167.022 47.225H166.772V48.225H167.022V47.225ZM167.262 47.8231C167.444 46.915 167.827 46.2616 168.384 45.8154L167.76 45.0346C166.984 45.6551 166.5 46.535 166.282 47.6269L167.262 47.8231ZM168.386 45.8145C168.971 45.3436 169.766 45.0515 170.809 44.9736L170.735 43.9764C169.545 44.0652 168.54 44.4064 167.759 45.0355L168.386 45.8145ZM170.806 44.9738L171.906 44.8988L171.838 43.9012L170.738 43.9762L170.806 44.9738ZM171.373 44.4353L171.598 47.6103L172.596 47.5397L172.371 44.3647L171.373 44.4353ZM172.044 47.0778L169.919 47.3028L170.025 48.2972L172.15 48.0722L172.044 47.0778ZM169.928 47.3019C168.912 47.391 168.073 47.6916 167.494 48.2714L168.201 48.9786C168.554 48.6251 169.132 48.3756 170.016 48.2981L169.928 47.3019ZM167.487 48.2779C166.919 48.8673 166.672 49.6851 166.672 50.65H167.672C167.672 49.8483 167.875 49.316 168.207 48.9721L167.487 48.2779ZM166.672 50.65V57H167.672V50.65H166.672ZM167.172 56.5H163.322V57.5H167.172V56.5ZM175.228 56.75L175.447 56.3007L175.228 56.75ZM173.553 55.325L173.137 55.6024L173.137 55.6024L173.553 55.325ZM173.653 51.175L174.024 51.5102L174.029 51.5043L173.653 51.175ZM175.928 50.05L176.029 50.5397L176.036 50.5381L175.928 50.05ZM181.428 49.7H181.928V49.2H181.428V49.7ZM181.428 51.65V52.15H181.928V51.65H181.428ZM178.478 51.725L178.423 51.2281L178.42 51.2283L178.478 51.725ZM177.403 52L177.593 52.4623L177.604 52.4577L177.616 52.4524L177.403 52ZM176.778 52.45L176.373 52.1559L176.364 52.1685L176.356 52.1816L176.778 52.45ZM177.078 54.3L176.734 54.6631L176.743 54.6716L177.078 54.3ZM179.778 54.425L180.032 54.8555L180.038 54.8521L179.778 54.425ZM180.678 53.5L181.113 53.7461L181.117 53.7381L180.678 53.5ZM180.503 47.725L180.158 48.0876L180.168 48.0966L180.503 47.725ZM176.678 47.575L176.809 48.0574L176.817 48.0554L176.678 47.575ZM174.478 48.5L174.014 48.6881L174.229 49.2164L174.725 48.9347L174.478 48.5ZM173.453 45.975L173.168 45.5639L172.839 45.7919L172.989 46.1631L173.453 45.975ZM175.028 45.2L175.193 45.6718L175.201 45.6692L175.028 45.2ZM177.003 44.675L177.087 45.168L177.098 45.1657L177.003 44.675ZM182.103 45.05L181.89 45.5028L181.901 45.5077L182.103 45.05ZM183.978 46.775L183.536 47.0098L183.538 47.0138L183.978 46.775ZM184.603 57V57.5H185.103V57H184.603ZM181.078 57H180.578V57.5H181.078V57ZM181.078 54.525V54.025H180.578V54.525H181.078ZM181.253 54.525L181.745 54.6119L181.849 54.025H181.253V54.525ZM180.603 56L180.212 55.6876L180.211 55.6896L180.603 56ZM179.378 56.95L179.577 57.409L179.589 57.4031L179.378 56.95ZM177.653 56.775C176.819 56.775 176.087 56.6133 175.447 56.3007L175.008 57.1993C175.802 57.5867 176.687 57.775 177.653 57.775V56.775ZM175.447 56.3007C174.801 55.9854 174.315 55.5663 173.969 55.0476L173.137 55.6024C173.591 56.2837 174.221 56.8146 175.008 57.1993L175.447 56.3007ZM173.969 55.0476C173.626 54.5332 173.453 53.9555 173.453 53.3H172.453C172.453 54.1445 172.68 54.9168 173.137 55.6024L173.969 55.0476ZM173.453 53.3C173.453 52.4865 173.662 51.9106 174.024 51.5101L173.282 50.8399C172.71 51.4728 172.453 52.3135 172.453 53.3H173.453ZM174.029 51.5043C174.395 51.0855 175.034 50.745 176.029 50.5397L175.827 49.5603C174.722 49.7883 173.843 50.1978 173.276 50.8457L174.029 51.5043ZM176.036 50.5381C177.036 50.316 178.387 50.2 180.103 50.2V49.2C178.352 49.2 176.92 49.3174 175.819 49.5619L176.036 50.5381ZM180.103 50.2H181.428V49.2H180.103V50.2ZM180.928 49.7V51.65H181.928V49.7H180.928ZM181.428 51.15H180.128V52.15H181.428V51.15ZM180.128 51.15C179.466 51.15 178.897 51.1754 178.423 51.2281L178.533 52.2219C178.959 52.1746 179.489 52.15 180.128 52.15V51.15ZM178.42 51.2283C177.953 51.2823 177.537 51.384 177.19 51.5476L177.616 52.4524C177.835 52.3493 178.136 52.2677 178.535 52.2217L178.42 51.2283ZM177.212 51.5377C176.873 51.6776 176.577 51.8759 176.373 52.1559L177.182 52.7441C177.245 52.6575 177.366 52.5558 177.593 52.4623L177.212 51.5377ZM176.356 52.1816C176.175 52.4661 176.103 52.8 176.103 53.15H177.103C177.103 52.9334 177.147 52.8005 177.2 52.7184L176.356 52.1816ZM176.103 53.15C176.103 53.7433 176.31 54.2614 176.734 54.663L177.422 53.937C177.212 53.7386 177.103 53.4901 177.103 53.15H176.103ZM176.743 54.6716C177.198 55.0809 177.809 55.25 178.503 55.25V54.25C177.963 54.25 177.624 54.1191 177.412 53.9284L176.743 54.6716ZM178.503 55.25C179.063 55.25 179.578 55.1235 180.032 54.8555L179.523 53.9945C179.244 54.1598 178.909 54.25 178.503 54.25V55.25ZM180.038 54.8521C180.493 54.5753 180.853 54.2052 181.113 53.746L180.242 53.254C180.069 53.5615 179.83 53.8081 179.518 53.9979L180.038 54.8521ZM181.117 53.7381C181.377 53.258 181.503 52.7247 181.503 52.15H180.503C180.503 52.5753 180.411 52.942 180.238 53.2619L181.117 53.7381ZM181.503 52.15V49.275H180.503V52.15H181.503ZM181.503 49.275C181.503 48.4872 181.327 47.794 180.837 47.3534L180.168 48.0966C180.345 48.256 180.503 48.5961 180.503 49.275H181.503ZM180.847 47.3625C180.373 46.9117 179.644 46.75 178.803 46.75V47.75C179.562 47.75 179.966 47.905 180.158 48.0875L180.847 47.3625ZM178.803 46.75C178.082 46.75 177.327 46.8671 176.539 47.0946L176.817 48.0554C177.529 47.8496 178.19 47.75 178.803 47.75V46.75ZM176.546 47.0926C175.768 47.3047 174.996 47.6302 174.231 48.0653L174.725 48.9347C175.426 48.5365 176.12 48.2453 176.809 48.0574L176.546 47.0926ZM174.941 48.3119L173.916 45.7869L172.989 46.1631L174.014 48.6881L174.941 48.3119ZM173.737 46.3861C174.126 46.1168 174.609 45.877 175.193 45.6717L174.862 44.7283C174.213 44.9564 173.646 45.2332 173.168 45.5639L173.737 46.3861ZM175.201 45.6692C175.804 45.4467 176.433 45.2795 177.087 45.1679L176.919 44.1821C176.206 44.3038 175.518 44.4866 174.855 44.7308L175.201 45.6692ZM177.098 45.1657C177.754 45.0378 178.372 44.975 178.953 44.975V43.975C178.3 43.975 177.618 44.0455 176.907 44.1843L177.098 45.1657ZM178.953 44.975C180.191 44.975 181.162 45.1608 181.89 45.5026L182.315 44.5974C181.41 44.1725 180.281 43.975 178.953 43.975V44.975ZM181.901 45.5077C182.635 45.8304 183.174 46.3284 183.536 47.0098L184.419 46.5402C183.948 45.655 183.237 45.003 182.304 44.5923L181.901 45.5077ZM183.538 47.0138C183.903 47.6839 184.103 48.5856 184.103 49.75H185.103C185.103 48.4811 184.886 47.3994 184.417 46.5362L183.538 47.0138ZM184.103 49.75V57H185.103V49.75H184.103ZM184.603 56.5H181.078V57.5H184.603V56.5ZM181.578 57V54.525H180.578V57H181.578ZM181.078 55.025H181.253V54.025H181.078V55.025ZM180.76 54.4381C180.674 54.9289 180.489 55.3415 180.212 55.6877L180.993 56.3123C181.383 55.8252 181.632 55.2544 181.745 54.6119L180.76 54.4381ZM180.211 55.6896C179.946 56.0238 179.602 56.2937 179.166 56.4969L179.589 57.4031C180.154 57.1396 180.626 56.7762 180.995 56.3104L180.211 55.6896ZM179.179 56.4912C178.753 56.676 178.247 56.775 177.653 56.775V57.775C178.358 57.775 179.003 57.6574 179.577 57.4088L179.179 56.4912ZM189.894 56.5L189.655 56.9396L189.664 56.9442L189.894 56.5ZM187.619 54.25L187.181 54.4915L187.181 54.4915L187.619 54.25ZM187.619 47.425L187.183 47.1802L187.183 47.1802L187.619 47.425ZM189.894 45.25L190.12 45.6957L190.123 45.6942L189.894 45.25ZM195.769 44.825L195.626 45.3042L195.629 45.305L195.769 44.825ZM197.719 45.825L198.182 46.0122L198.316 45.6811L198.046 45.4472L197.719 45.825ZM196.669 48.425L196.349 48.8091L196.876 49.2482L197.132 48.6122L196.669 48.425ZM195.269 47.65L195.093 48.1183L195.106 48.1228L195.269 47.65ZM191.469 48.275L191.096 47.9422L191.095 47.9428L191.469 48.275ZM191.469 53.45L191.086 53.7721L191.091 53.7775L191.096 53.7828L191.469 53.45ZM196.669 53.3L197.132 53.1128L196.869 52.4605L196.339 52.9237L196.669 53.3ZM197.719 55.9L198.039 56.2841L198.319 56.0508L198.182 55.7128L197.719 55.9ZM193.394 56.775C192.126 56.775 191.04 56.5296 190.123 56.0558L189.664 56.9442C190.747 57.5037 191.995 57.775 193.394 57.775V56.775ZM190.132 56.0605C189.232 55.5721 188.543 54.8903 188.057 54.0085L187.181 54.4915C187.761 55.5431 188.589 56.3612 189.655 56.9395L190.132 56.0605ZM188.057 54.0085C187.571 53.1288 187.319 52.0734 187.319 50.825H186.319C186.319 52.2099 186.6 53.4379 187.181 54.4915L188.057 54.0085ZM187.319 50.825C187.319 49.5762 187.571 48.5309 188.055 47.6698L187.183 47.1802C186.6 48.2191 186.319 49.4404 186.319 50.825H187.319ZM188.055 47.6698C188.539 46.8071 189.224 46.1515 190.12 45.6957L189.667 44.8043C188.597 45.3485 187.765 46.1429 187.183 47.1802L188.055 47.6698ZM190.123 45.6942C191.04 45.2204 192.126 44.975 193.394 44.975V43.975C191.995 43.975 190.747 44.2463 189.664 44.8058L190.123 45.6942ZM193.394 44.975C194.144 44.975 194.888 45.0844 195.626 45.3042L195.911 44.3458C195.083 44.099 194.243 43.975 193.394 43.975V44.975ZM195.629 45.305C196.377 45.5232 196.958 45.8272 197.391 46.2028L198.046 45.4472C197.48 44.9561 196.76 44.5934 195.909 44.345L195.629 45.305ZM197.255 45.6378L196.205 48.2378L197.132 48.6122L198.182 46.0122L197.255 45.6378ZM196.989 48.0409C196.538 47.6655 196.017 47.3786 195.431 47.1772L195.106 48.1228C195.587 48.2881 195.999 48.5178 196.349 48.8091L196.989 48.0409ZM195.444 47.1818C194.867 46.9653 194.307 46.85 193.769 46.85V47.85C194.164 47.85 194.604 47.9347 195.093 48.1182L195.444 47.1818ZM193.769 46.85C192.673 46.85 191.759 47.1989 191.096 47.9422L191.842 48.6078C192.279 48.1178 192.898 47.85 193.769 47.85V46.85ZM191.095 47.9428C190.453 48.6647 190.169 49.6588 190.169 50.85H191.169C191.169 49.8079 191.417 49.0853 191.842 48.6072L191.095 47.9428ZM190.169 50.85C190.169 52.0288 190.455 53.0226 191.086 53.7721L191.851 53.1279C191.416 52.6107 191.169 51.8712 191.169 50.85H190.169ZM191.096 53.7828C191.759 54.5261 192.673 54.875 193.769 54.875V53.875C192.898 53.875 192.279 53.6072 191.842 53.1172L191.096 53.7828ZM193.769 54.875C194.301 54.875 194.856 54.7705 195.431 54.5728L195.106 53.6272C194.615 53.7961 194.17 53.875 193.769 53.875V54.875ZM195.431 54.5728C196.022 54.3697 196.546 54.0715 196.998 53.6763L196.339 52.9237C195.991 53.2285 195.582 53.4636 195.106 53.6272L195.431 54.5728ZM196.205 53.4872L197.255 56.0872L198.182 55.7128L197.132 53.1128L196.205 53.4872ZM197.399 55.5159C196.961 55.8804 196.374 56.1869 195.62 56.4228L195.918 57.3772C196.763 57.1131 197.476 56.7529 198.039 56.2841L197.399 55.5159ZM195.62 56.4228C194.865 56.6587 194.123 56.775 193.394 56.775V57.775C194.231 57.775 195.073 57.6413 195.918 57.3772L195.62 56.4228ZM199.207 42.35H198.707V42.85H199.207V42.35ZM199.207 38.825V38.325H198.707V38.825H199.207ZM203.282 38.825H203.782V38.325H203.282V38.825ZM203.282 42.35V42.85H203.782V42.35H203.282ZM199.357 57H198.857V57.5H199.357V57ZM199.357 44.725V44.225H198.857V44.725H199.357ZM203.132 44.725H203.632V44.225H203.132V44.725ZM203.132 57V57.5H203.632V57H203.132ZM199.707 42.35V38.825H198.707V42.35H199.707ZM199.207 39.325H203.282V38.325H199.207V39.325ZM202.782 38.825V42.35H203.782V38.825H202.782ZM203.282 41.85H199.207V42.85H203.282V41.85ZM199.857 57V44.725H198.857V57H199.857ZM199.357 45.225H203.132V44.225H199.357V45.225ZM202.632 44.725V57H203.632V44.725H202.632ZM203.132 56.5H199.357V57.5H203.132V56.5ZM208.497 56.5L208.261 56.941L208.264 56.9426L208.497 56.5ZM206.247 54.275L205.809 54.5165L205.809 54.5165L206.247 54.275ZM206.247 47.45L205.811 47.2052L205.811 47.2052L206.247 47.45ZM208.497 45.25L208.264 44.8074L208.261 44.809L208.497 45.25ZM215.372 45.25L215.136 45.691L215.139 45.6926L215.372 45.25ZM217.647 47.475L217.209 47.7166L217.214 47.7255L217.647 47.475ZM217.647 54.275L217.212 54.0277L217.209 54.0335L217.647 54.275ZM215.372 56.5L215.139 56.0574L215.136 56.059L215.372 56.5ZM213.922 53.575L214.301 53.9004L214.306 53.8951L213.922 53.575ZM213.922 48.175L213.542 48.5004L213.547 48.5058L213.922 48.175ZM209.997 48.175L210.372 48.5058L210.376 48.5004L209.997 48.175ZM209.997 53.575L209.613 53.8951L209.617 53.9004L209.997 53.575ZM210.697 43.125L210.25 42.9005L209.886 43.625H210.697V43.125ZM213.272 38V37.5H212.963L212.825 37.7755L213.272 38ZM216.872 38L217.278 38.2914L217.845 37.5H216.872V38ZM213.197 43.125V43.625H213.453L213.603 43.4164L213.197 43.125ZM211.947 56.775C210.696 56.775 209.629 56.53 208.729 56.0574L208.264 56.9426C209.331 57.5034 210.564 57.775 211.947 57.775V56.775ZM208.732 56.059C207.852 55.5883 207.171 54.9162 206.684 54.0335L205.809 54.5165C206.389 55.5672 207.208 56.3784 208.261 56.941L208.732 56.059ZM206.684 54.0335C206.199 53.1538 205.947 52.0984 205.947 50.85H204.947C204.947 52.2349 205.228 53.4629 205.809 54.5165L206.684 54.0335ZM205.947 50.85C205.947 49.6012 206.199 48.5559 206.683 47.6948L205.811 47.2052C205.227 48.2441 204.947 49.4654 204.947 50.85H205.947ZM206.683 47.6948C207.169 46.8285 207.849 46.163 208.732 45.691L208.261 44.809C207.211 45.3704 206.391 46.1715 205.811 47.2052L206.683 47.6948ZM208.729 45.6926C209.629 45.22 210.696 44.975 211.947 44.975V43.975C210.564 43.975 209.331 44.2466 208.264 44.8074L208.729 45.6926ZM211.947 44.975C213.198 44.975 214.255 45.2201 215.136 45.691L215.607 44.809C214.555 44.2465 213.329 43.975 211.947 43.975V44.975ZM215.139 45.6926C216.036 46.1641 216.723 46.8361 217.209 47.7165L218.084 47.2335C217.504 46.1806 216.674 45.3693 215.604 44.8074L215.139 45.6926ZM217.214 47.7255C217.712 48.5864 217.972 49.6217 217.972 50.85H218.972C218.972 49.4783 218.681 48.2636 218.079 47.2245L217.214 47.7255ZM217.972 50.85C217.972 52.096 217.712 53.1492 217.212 54.0277L218.081 54.5223C218.681 53.4675 218.972 52.2374 218.972 50.85H217.972ZM217.209 54.0335C216.723 54.9139 216.036 55.5859 215.139 56.0574L215.604 56.9426C216.674 56.3807 217.504 55.5694 218.084 54.5165L217.209 54.0335ZM215.136 56.059C214.255 56.5299 213.198 56.775 211.947 56.775V57.775C213.329 57.775 214.555 57.5035 215.607 56.941L215.136 56.059ZM211.947 54.95C212.899 54.95 213.7 54.6023 214.301 53.9004L213.542 53.2496C213.144 53.7144 212.628 53.95 211.947 53.95V54.95ZM214.306 53.8951C214.913 53.167 215.172 52.1218 215.172 50.85H214.172C214.172 52.0116 213.931 52.783 213.538 53.2549L214.306 53.8951ZM215.172 50.85C215.172 49.5816 214.914 48.5438 214.297 47.8442L213.547 48.5058C213.929 48.9396 214.172 49.6851 214.172 50.85H215.172ZM214.301 47.8496C213.7 47.1477 212.899 46.8 211.947 46.8V47.8C212.628 47.8 213.144 48.0356 213.542 48.5004L214.301 47.8496ZM211.947 46.8C211.008 46.8 210.216 47.1503 209.617 47.8496L210.376 48.5004C210.777 48.033 211.286 47.8 211.947 47.8V46.8ZM209.622 47.8442C209.004 48.5438 208.747 49.5816 208.747 50.85H209.747C209.747 49.6851 209.989 48.9396 210.372 48.5058L209.622 47.8442ZM208.747 50.85C208.747 52.1218 209.006 53.167 209.613 53.8951L210.381 53.2549C209.988 52.783 209.747 52.0116 209.747 50.85H208.747ZM209.617 53.9004C210.216 54.5997 211.008 54.95 211.947 54.95V53.95C211.286 53.95 210.777 53.717 210.376 53.2496L209.617 53.9004ZM211.143 43.3495L213.718 38.2245L212.825 37.7755L210.25 42.9005L211.143 43.3495ZM213.272 38.5H216.872V37.5H213.272V38.5ZM216.465 37.7086L212.79 42.8336L213.603 43.4164L217.278 38.2914L216.465 37.7086ZM213.197 42.625H210.697V43.625H213.197V42.625ZM220.768 57H220.268V57.5H220.768V57ZM220.768 44.725V44.225H220.268V44.725H220.768ZM224.468 44.725H224.968V44.225H224.468V44.725ZM224.468 47.025V47.525H224.968V47.025H224.468ZM224.193 47.025L223.741 46.8125L223.406 47.525H224.193V47.025ZM225.893 45.15L226.144 45.5829L226.146 45.5812L225.893 45.15ZM230.918 45.05L230.659 45.4778L230.668 45.4827L230.918 45.05ZM232.343 46.75L231.881 46.9409L231.883 46.9445L232.343 46.75ZM232.818 57V57.5H233.318V57H232.818ZM229.043 57H228.543V57.5H229.043V57ZM228.818 48.425L228.348 48.5959L228.353 48.6091L228.359 48.622L228.818 48.425ZM228.193 47.65L227.928 48.074L227.944 48.0835L227.959 48.0919L228.193 47.65ZM225.768 47.75L226.014 48.1853L226.02 48.1819L225.768 47.75ZM224.868 48.7L225.312 48.9307L225.312 48.9307L224.868 48.7ZM224.543 57V57.5H225.043V57H224.543ZM221.268 57V44.725H220.268V57H221.268ZM220.768 45.225H224.468V44.225H220.768V45.225ZM223.968 44.725V47.025H224.968V44.725H223.968ZM224.468 46.525H224.193V47.525H224.468V46.525ZM224.646 47.2375C224.988 46.5092 225.486 45.963 226.143 45.5829L225.643 44.7171C224.801 45.2037 224.166 45.9075 223.741 46.8125L224.646 47.2375ZM226.146 45.5812C226.83 45.1801 227.608 44.975 228.493 44.975V43.975C227.446 43.975 226.49 44.2199 225.64 44.7188L226.146 45.5812ZM228.493 44.975C229.415 44.975 230.126 45.1548 230.659 45.4777L231.177 44.6222C230.444 44.1786 229.539 43.975 228.493 43.975V44.975ZM230.668 45.4827C231.193 45.787 231.601 46.2617 231.881 46.9409L232.805 46.5591C232.453 45.705 231.91 45.0463 231.169 44.6173L230.668 45.4827ZM231.883 46.9445C232.165 47.6124 232.318 48.4985 232.318 49.625H233.318C233.318 48.4182 233.155 47.3876 232.804 46.5555L231.883 46.9445ZM232.318 49.625V57H233.318V49.625H232.318ZM232.818 56.5H229.043V57.5H232.818V56.5ZM229.543 57V49.8H228.543V57H229.543ZM229.543 49.8C229.543 49.1957 229.464 48.663 229.278 48.228L228.359 48.622C228.472 48.887 228.543 49.271 228.543 49.8H229.543ZM229.288 48.2541C229.122 47.7975 228.843 47.4281 228.427 47.2081L227.959 48.0919C228.111 48.1719 228.248 48.3191 228.348 48.5959L229.288 48.2541ZM228.458 47.226C228.09 46.996 227.649 46.9 227.168 46.9V47.9C227.521 47.9 227.763 47.9707 227.928 48.074L228.458 47.226ZM227.168 46.9C226.56 46.9 226.004 47.0338 225.516 47.3181L226.02 48.1819C226.333 47.9996 226.71 47.9 227.168 47.9V46.9ZM225.522 47.3147C225.049 47.5822 224.683 47.9728 224.425 48.4693L225.312 48.9307C225.487 48.5939 225.721 48.3511 226.014 48.1853L225.522 47.3147ZM224.425 48.4693C224.165 48.9685 224.043 49.5334 224.043 50.15H225.043C225.043 49.6666 225.138 49.2648 225.312 48.9307L224.425 48.4693ZM224.043 50.15V57H225.043V50.15H224.043ZM224.543 56.5H220.768V57.5H224.543V56.5Z" fill="black"/>
<defs>
<filter id="filter0_i_217_8399" x="18" y="27" width="158" height="37" filterUnits="userSpaceOnUse" color-interpolation-filters="sRGB">
<feFlood flood-opacity="0" result="BackgroundImageFix"/>
<feBlend mode="normal" in="SourceGraphic" in2="BackgroundImageFix" result="shape"/>
<feColorMatrix in="SourceAlpha" type="matrix" values="0 0 0 0 0 0 0 0 0 0 0 0 0 0 0 0 0 0 127 0" result="hardAlpha"/>
<feOffset dx="-1"/>
<feComposite in2="hardAlpha" operator="arithmetic" k2="-1" k3="1"/>
<feColorMatrix type="matrix" values="0 0 0 0 0.192157 0 0 0 0 0.239216 0 0 0 0 0.309804 0 0 0 1 0"/>
<feBlend mode="normal" in2="shape" result="effect1_innerShadow_217_8399"/>
</filter>
</defs>
</svg>
